<?xml version="1.0" encoding="UTF-8"?>
<svg version="1.1" xmlns="http://www.w3.org/2000/svg" width="1080" height="174">
<path d="M0 0 C9.57 0 19.14 0 29 0 C29 15.18 29 30.36 29 46 C39.56 46 50.12 46 61 46 C61 55.24 61 64.48 61 74 C50.44 74 39.88 74 29 74 C29.06763259 81.33930196 29.13803508 88.67762982 29.2355423 96.01644135 C29.28014519 99.4341965 29.31959198 102.85183069 29.34643555 106.26977539 C29.37749806 110.19443149 29.43228618 114.11858601 29.48828125 118.04296875 C29.49786613 119.87446724 29.49786613 119.87446724 29.50764465 121.7429657 C29.52743881 122.8837709 29.54723297 124.02457611 29.56762695 125.19995117 C29.57873001 126.20144699 29.58983307 127.20294281 29.60127258 128.23478699 C30.07070931 131.49037588 31.0574427 133.36229133 33 136 C38.96404796 139.72752998 44.22556894 139.28087982 51 138 C53.42625156 137.30418311 55.76946994 136.52606761 58.125 135.62109375 C60 135 60 135 63 135 C63.26210888 139.37385799 63.42144886 143.74569809 63.5625 148.125 C63.67561523 149.98125 63.67561523 149.98125 63.79101562 151.875 C64.00740747 160.81919633 64.00740747 160.81919633 61.18725586 164.12475586 C49.12344101 172.46153848 32.78014478 174.43411171 18.53515625 172.5390625 C8.98133741 170.77559974 0.84526936 167.89886972 -5.4375 160.1875 C-12.77433584 149.30659939 -12.14573751 136.60376467 -12.09765625 124 C-12.0957881 122.55411834 -12.09436607 121.10823604 -12.09336853 119.66235352 C-12.08957463 115.88126843 -12.07977151 112.10022256 -12.06866455 108.31915283 C-12.05838274 104.4510552 -12.05385649 100.58295115 -12.04882812 96.71484375 C-12.03814604 89.14321141 -12.02110777 81.57161123 -12 74 C-14.89724063 74.08724816 -17.79150135 74.19415927 -20.6875 74.3125 C-21.50412109 74.33505859 -22.32074219 74.35761719 -23.16210938 74.38085938 C-28.32071419 74.61059481 -32.1709577 75.1709577 -36 79 C-36.1252097 81.79908707 -36.18608723 84.57470329 -36.20532227 87.37524414 C-36.21522186 88.25321152 -36.22512146 89.13117889 -36.23532104 90.03575134 C-36.26703427 92.95219175 -36.29173211 95.86864848 -36.31640625 98.78515625 C-36.33696731 100.80155371 -36.35796354 102.81794677 -36.37937927 104.83433533 C-36.43468759 110.15260266 -36.4840581 115.47090945 -36.53222656 120.78924561 C-36.59118867 127.16440415 -36.65746462 133.53949028 -36.72252655 139.91458893 C-36.82064621 149.60968188 -36.90942686 159.30482036 -37 169 C-50.2 169 -63.4 169 -77 169 C-77 164.71 -77 160.42 -77 156 C-78.134375 157.03125 -79.26875 158.0625 -80.4375 159.125 C-92.44641895 169.56937669 -104.02410999 173.84885519 -120 173 C-131.73978849 171.61575628 -141.2264396 167.14510755 -148.7265625 157.86328125 C-155.45232304 148.3710133 -157.16363068 138.48492515 -157.11352539 127.05712891 C-157.11367142 126.1784314 -157.11381744 125.29973389 -157.1139679 124.39440918 C-157.11327413 121.50510139 -157.1055069 118.61585896 -157.09765625 115.7265625 C-157.09579017 113.71731603 -157.09436716 111.70806911 -157.09336853 109.69882202 C-157.08955836 104.42167902 -157.0797409 99.14456373 -157.06866455 93.86743164 C-157.05661526 87.5297452 -157.05204105 81.19204948 -157.04621124 74.85435486 C-157.03652833 65.23621732 -157.01736126 55.61814054 -157 46 C-144.13 46 -131.26 46 -118 46 C-117.95101562 51.22585937 -117.90203125 56.45171875 -117.8515625 61.8359375 C-117.81614296 65.16277882 -117.78016404 68.48959553 -117.7421875 71.81640625 C-117.68207066 77.08736495 -117.623934 82.35828953 -117.578125 87.62939453 C-117.54102866 91.88296829 -117.4946055 96.13635064 -117.44193649 100.38975906 C-117.42352103 102.00587198 -117.40836662 103.62202573 -117.39665604 105.23820114 C-117.66648982 120.84831792 -117.66648982 120.84831792 -112 135 C-112 135.66 -112 136.32 -112 137 C-104.89241532 139.88145325 -98.25028075 141.52119062 -90.640625 139.31640625 C-85.91321376 137.17485341 -83.32658273 134.7393352 -81 130 C-78.15376703 121.94859307 -77.57138549 114.40652287 -77.59375 105.921875 C-77.57749573 104.10565643 -77.57749573 104.10565643 -77.56091309 102.25274658 C-77.5153643 97.11840423 -77.50355342 91.98411755 -77.48876953 86.84960938 C-77.4730626 83.08184968 -77.4400754 79.31450858 -77.40625 75.546875 C-77.40927124 74.39257996 -77.41229248 73.23828491 -77.41540527 72.04901123 C-77.32850552 62.72286717 -75.72501126 56.88140688 -69 50 C-62.51300714 45.99738738 -55.97849065 45.86065159 -48.53125 45.7890625 C-46.89191687 45.76100702 -45.25259407 45.73234266 -43.61328125 45.703125 C-41.05257315 45.66184703 -38.49206083 45.62491851 -35.93115234 45.59863281 C-33.44329129 45.57094217 -30.95628036 45.52509463 -28.46875 45.4765625 C-27.70921021 45.47330963 -26.94967041 45.47005676 -26.16711426 45.46670532 C-20.39983015 45.33418056 -16.1936692 44.06462983 -11.875 40 C-6.68689168 31.69902669 -4.82968447 21.75763274 -2.75 12.3125 C-1.8425 8.249375 -0.935 4.18625 0 0 Z " fill="#121212" transform="translate(791,1)"/>
<path d="M0 0 C24.564375 -0.0928125 24.564375 -0.0928125 49.625 -0.1875 C54.7704541 -0.21481201 59.9159082 -0.24212402 65.21728516 -0.27026367 C71.56518555 -0.28381348 71.56518555 -0.28381348 74.54940796 -0.28633118 C76.60631261 -0.29089788 78.6632099 -0.30136467 80.72006226 -0.31672668 C101.95014769 -0.46717802 121.27255768 1.41303608 138 16 C148.32803289 26.46469873 151.90678574 40.22210074 152.03125 54.61328125 C151.46813706 67.49448984 147.39523968 79.33099013 137.75 88.25 C132.80852877 92.20979503 126.98677108 95.00440964 121 97 C121.73605469 97.38671875 122.47210938 97.7734375 123.23046875 98.171875 C133.24949681 103.51888601 140.06780787 108.28611634 143.5546875 119.46875 C145.30518717 125.52697195 145.90687172 131.61420152 146.5 137.875 C147.54285032 148.80561628 148.81626129 159.18017699 154 169 C147.36161628 169.12660891 140.72354289 169.21427006 134.08422852 169.2746582 C131.82499558 169.29982755 129.56584426 169.33396593 127.30688477 169.37719727 C124.06245818 169.4377409 120.81910642 169.46618557 117.57421875 169.48828125 C116.05534309 169.52699089 116.05534309 169.52699089 114.50578308 169.56648254 C111.90809378 169.56752536 109.54259912 169.53206179 107 169 C99.97391353 161.0845664 100.22653646 145.64076998 99.265625 135.57885742 C98.56713847 129.1057597 97.69236596 122.09423097 92.40698242 117.66503906 C86.2926052 113.88198281 79.73972374 113.84225592 72.7578125 113.68359375 C72.07581787 113.66494263 71.39382324 113.6462915 70.69116211 113.6270752 C68.16922653 113.55932045 65.64710006 113.49882731 63.125 113.4375 C57.47375 113.293125 51.8225 113.14875 46 113 C46 131.48 46 149.96 46 169 C30.82 169 15.64 169 0 169 C0 113.23 0 57.46 0 0 Z M46 37 C46 50.2 46 63.4 46 77 C51.92324354 77.09235027 57.84394134 77.1718298 63.76733398 77.21972656 C65.77783724 77.23971393 67.78828333 77.26691326 69.79858398 77.30175781 C86.75217293 78.2274101 86.75217293 78.2274101 101.71459961 71.51635742 C106.24565664 66.44411477 106.35575521 61.56843729 106.26953125 55.078125 C105.80517854 49.7750825 104.29834965 45.98817414 100.234375 42.47265625 C92.8722574 37.47279292 85.13307089 36.69693498 76.46875 36.8046875 C75.69047852 36.80670166 74.91220703 36.80871582 74.11035156 36.81079102 C71.24017327 36.82114964 68.37007987 36.84907107 65.5 36.875 C59.065 36.91625 52.63 36.9575 46 37 Z " fill="#121212" transform="translate(347,1)"/>
<path d="M0 0 C11.45158526 9.76398323 19.80154961 23.05311472 21.59765625 38.21484375 C22.88100481 58.87793297 20.60068131 76.57490504 6.78515625 92.90234375 C-6.39563499 106.83632306 -23.47297327 112.81328516 -42.33984375 113.46484375 C-61.28568096 113.22802078 -77.58023965 107.33246493 -91.5 94.2421875 C-104.13672047 80.71673065 -107.96377464 63.16984778 -107.67578125 45.24609375 C-107.05052534 29.00182149 -100.48714122 14.41383601 -89.18359375 2.71875 C-65.16065071 -18.90864675 -25.37225867 -19.60417684 0 0 Z M-62.40234375 26.21484375 C-68.71006375 37.90053312 -69.31144845 52.59263427 -65.83984375 65.27734375 C-63.35779407 72.28496812 -59.66874153 77.01357568 -53.52734375 81.15234375 C-46.63305778 83.49640098 -40.25093004 83.89914134 -33.40234375 81.21484375 C-26.19981211 77.26051265 -22.18717514 71.87313007 -19.40234375 64.21484375 C-16.25746029 52.24681504 -17.31660458 37.80264506 -23.15234375 26.96484375 C-28.97088144 19.85329769 -33.68023303 17.07665282 -42.83984375 15.90234375 C-50.82881336 16.87660834 -57.23607241 19.93817472 -62.40234375 26.21484375 Z " fill="#121212" transform="translate(605.40234375,60.78515625)"/>
<path d="M0 0 C11.46894031 10.61144944 18.77853376 24.19787385 20.08984375 39.93359375 C20.08984375 44.55359375 20.08984375 49.17359375 20.08984375 53.93359375 C-8.29015625 53.93359375 -36.67015625 53.93359375 -65.91015625 53.93359375 C-64.32239023 68.02097717 -64.32239023 68.02097717 -56.3125 78.296875 C-48.23911393 83.54553025 -38.07663774 83.65547425 -28.91015625 81.93359375 C-21.30699059 79.58630771 -17.19026565 74.35375785 -12.91015625 67.93359375 C-2.98271344 65.99805459 9.08552296 68.88593336 19.08984375 69.93359375 C16.21196582 84.5130892 9.38071293 96.13954225 -2.97265625 104.74609375 C-12.0701568 110.15853079 -23.310725 113.66860797 -33.91015625 113.93359375 C-34.81765625 113.97226563 -35.72515625 114.0109375 -36.66015625 114.05078125 C-56.25887452 114.51012621 -75.19206673 109.06828637 -89.62109375 95.41796875 C-102.03216729 81.94792989 -105.63651958 65.5929476 -105.22265625 47.828125 C-104.4110439 30.61179807 -97.13293189 14.60378692 -84.59765625 2.74609375 C-61.7100715 -16.62032412 -23.76483203 -19.98308661 0 0 Z M-60.91015625 22.93359375 C-63.28652877 26.53330597 -64.91015625 29.58194551 -64.91015625 33.93359375 C-49.73015625 33.93359375 -34.55015625 33.93359375 -18.91015625 33.93359375 C-19.87928038 26.53678661 -19.87928038 26.53678661 -23.91015625 20.93359375 C-34.6587143 13.87282549 -51.47221794 13.1533468 -60.91015625 22.93359375 Z " fill="#121212" transform="translate(962.91015625,60.06640625)"/>
<path d="M0 0 C7.26063108 7.76718674 9.22382254 14.66872855 10.58374023 24.96411133 C11.82940019 33.91490277 14.71276879 39.78979982 21.74609375 45.5859375 C27.42616372 49.35741253 32.3124706 50.41520114 38.9375 51.1875 C48.58826993 52.53354056 55.742749 54.94863526 62.125 62.6875 C66.88966636 69.80075545 68.82046158 77.35869326 67.6875 85.875 C65.63306442 94.29006097 62.43158427 100.70738887 55.16015625 105.5625 C48.25300618 109.41937843 42.03990273 110.51861198 34.2421875 111.33984375 C26.20951311 112.54915847 20.11557364 116.31998111 15.0859375 122.66015625 C11.3363065 128.59881764 10.64865524 135.01624875 9.875 141.875 C8.72954357 150.44264162 5.6257182 156.80143464 -1.125 162.3125 C-8.24434984 167.08124856 -15.79055789 168.99765106 -24.3125 167.875 C-32.74628881 165.89612218 -39.54043872 162.11641073 -44.65625 155.0078125 C-49.17761845 147.48296358 -49.0836155 139.40059156 -48.3125 130.875 C-46.40502251 124.73308079 -43.22078135 120.04703915 -38.3125 115.875 C-37.61125 115.17375 -36.91 114.4725 -36.1875 113.75 C-30.04539486 109.74427925 -22.7844045 108.89804377 -15.625 108 C-7.22193533 106.77538276 -1.78878633 103.33147684 3.43359375 96.671875 C8.2708202 89.74002402 8.55674655 83.18223125 7.6875 74.875 C5.80653137 66.80250961 1.69574312 61.1156279 -5.23828125 56.62890625 C-9.97314008 54.1946003 -14.48091315 53.52118535 -19.75 52.9375 C-28.87555849 51.894056 -36.3757733 49.16869281 -42.3125 41.875 C-48.21915697 33.30950599 -49.06324781 26.17399105 -48.3125 15.875 C-46.53609916 8.74909493 -42.1644782 2.46084971 -36.06640625 -1.6328125 C-24.02929846 -8.55069054 -11.67177013 -7.48755065 0 0 Z " fill="#F44250" transform="translate(164.3125,6.125)"/>
<path d="M0 0 C0.26464844 2.33154297 0.26464844 2.33154297 0.109375 5.2421875 C0.05910156 6.30953125 0.00882813 7.376875 -0.04296875 8.4765625 C-0.11128906 9.59804688 -0.17960937 10.71953125 -0.25 11.875 C-0.30285156 12.9578125 -0.35570312 14.040625 -0.41015625 15.15625 C-0.78445973 22.45081558 -1.35311366 29.72499144 -2 37 C-2.93573853 36.66959717 -2.93573853 36.66959717 -3.89038086 36.33251953 C-13.63639731 32.97417408 -25.13310789 31.21599602 -35 35 C-41.46988133 38.54012375 -44.80866656 42.88974645 -47.38671875 49.64453125 C-49.46510333 57.62711661 -49.21059079 65.9382823 -49.31640625 74.125 C-49.33701574 75.48120702 -49.35801314 76.8374082 -49.37937927 78.19360352 C-49.43418803 81.73788679 -49.48377632 85.28222399 -49.53222656 88.82659912 C-49.5827453 92.45345773 -49.63822389 96.08024037 -49.69335938 99.70703125 C-49.80089872 106.80462801 -49.90024127 113.90227259 -50 121 C-62.87 121 -75.74 121 -89 121 C-89 80.41 -89 39.82 -89 -2 C-76.13 -2 -63.26 -2 -50 -2 C-49.505 6.415 -49.505 6.415 -49 15 C-47.989375 13.63875 -46.97875 12.2775 -45.9375 10.875 C-39.67833 2.8848371 -33.24491106 -1.87953823 -23.4375 -4.75 C-15.00296859 -5.61508014 -7.20322702 -4.80215134 0 0 Z " fill="#121212" transform="translate(1079,49)"/>
<path d="M0 0 C5.47294806 6.27191858 8.03471651 14.27721268 7.87890625 22.53515625 C6.8705268 31.03435449 3.06726283 38.27411877 -3.39453125 43.83984375 C-11.19557213 49.12399475 -18.00563852 50.71264918 -27.39453125 49.83984375 C-36.10860331 47.71570871 -42.27912556 42.77509304 -47.76953125 35.83984375 C-51.7200112 28.54665 -52.61313348 21.07910362 -50.7421875 13.03515625 C-47.91296375 4.26820541 -43.53850269 -1.76612019 -35.33203125 -6.09765625 C-22.72745639 -11.71861531 -10.13621318 -9.11563337 0 0 Z " fill="#121212" transform="translate(282.39453125,124.16015625)"/>
<path d="M0 0 C6.01252603 6.14917435 9.59565936 13.78413629 9.81640625 22.40625 C9.40650647 31.25014826 6.52955556 38.53463337 0.0625 44.6875 C-7.60993595 50.76510376 -15.5525953 52.92484936 -25.25 51.8125 C-33.35322282 50.54299509 -38.86884561 45.80338951 -44.25 39.8125 C-49.07921416 32.45430264 -49.98604145 25.42418498 -49.25 16.8125 C-47.31441161 8.66204044 -42.89447251 1.77141909 -35.78515625 -2.7578125 C-23.24751329 -9.35657196 -11.58033034 -7.79445311 0 0 Z " fill="#121212" transform="translate(49.25,122.1875)"/>
<path d="M0 0 C7.65197825 4.04685628 13.98987205 9.83014458 16.703125 18.2265625 C18.37157334 26.97046769 18.05786681 35.88541187 13.125 43.4375 C8.25641167 50.3274769 3.04043298 53.79902234 -4.875 56.4375 C-15.94288744 57.30529066 -23.51215527 56.14369385 -32.1875 49.1875 C-37.26308002 44.49612724 -40.56860256 38.3453231 -41.11328125 31.3984375 C-41.34292889 20.30283037 -39.37998473 13.35129814 -31.8125 5.1640625 C-23.46287697 -2.27652899 -10.31961028 -4.22165875 0 0 Z " fill="#121212" transform="translate(98.875,59.5625)"/>
<path d="M0 0 C0.79481277 0.00565979 1.58962555 0.01131958 2.40852356 0.01715088 C4.94613991 0.03953496 7.48234205 0.08973238 10.01953125 0.140625 C11.74021398 0.1606875 13.46091884 0.17893871 15.18164062 0.1953125 C19.39898207 0.23940606 23.61526694 0.30844535 27.83203125 0.390625 C27.83203125 2.370625 27.83203125 4.350625 27.83203125 6.390625 C17.93203125 6.390625 8.03203125 6.390625 -2.16796875 6.390625 C-2.16796875 8.370625 -2.16796875 10.350625 -2.16796875 12.390625 C7.40203125 12.390625 16.97203125 12.390625 26.83203125 12.390625 C26.83203125 14.370625 26.83203125 16.350625 26.83203125 18.390625 C17.26203125 18.390625 7.69203125 18.390625 -2.16796875 18.390625 C-2.16796875 20.040625 -2.16796875 21.690625 -2.16796875 23.390625 C7.73203125 23.390625 17.63203125 23.390625 27.83203125 23.390625 C27.83203125 25.700625 27.83203125 28.010625 27.83203125 30.390625 C22.90244003 30.44005399 17.972993 30.47635818 13.04321289 30.50048828 C11.366104 30.51054737 9.68901264 30.52419622 8.01196289 30.54150391 C5.60168123 30.56575652 3.19163139 30.5771089 0.78125 30.5859375 C-0.34389763 30.60142136 -0.34389763 30.60142136 -1.49177551 30.61721802 C-5.27097654 30.618033 -6.94211274 30.54119567 -10.16796875 28.390625 C-11.64783831 23.95101631 -11.39294802 19.60385347 -11.41796875 14.953125 C-11.44890625 13.52129883 -11.44890625 13.52129883 -11.48046875 12.06054688 C-11.485625 11.13951172 -11.49078125 10.21847656 -11.49609375 9.26953125 C-11.50543945 8.4297876 -11.51478516 7.59004395 -11.52441406 6.72485352 C-10.46235604 -0.23017164 -6.11168243 -0.16344701 0 0 Z " fill="#121212" transform="translate(583.16796875,1.609375)"/>
<path d="M0 0 C5.07224747 -0.04590269 10.1437748 -0.08573021 15.21606445 -0.10986328 C16.94167523 -0.11992326 18.66726895 -0.13357276 20.39282227 -0.15087891 C22.8726014 -0.17512754 25.35215523 -0.18648301 27.83203125 -0.1953125 C28.60400345 -0.20563507 29.37597565 -0.21595764 30.17134094 -0.22659302 C33.99281476 -0.22739422 35.74136107 -0.17242595 39 2 C39.96306898 4.88920694 40.1955936 6.92247881 40.25 9.9375 C40.27578125 10.79214844 40.3015625 11.64679687 40.328125 12.52734375 C39.93876562 15.46144478 38.93350171 16.80700201 37 19 C37.66 19.33 38.32 19.66 39 20 C40.1577506 23.47325181 40.06866652 26.36067448 40 30 C37.36 30 34.72 30 32 30 C32 27.36 32 24.72 32 22 C24.08 22 16.16 22 8 22 C8 24.64 8 27.28 8 30 C5.36 30 2.72 30 0 30 C0 20.1 0 10.2 0 0 Z M8 6 C8 9.3 8 12.6 8 16 C15.92 16 23.84 16 32 16 C32 12.7 32 9.4 32 6 C24.08 6 16.16 6 8 6 Z " fill="#121212" transform="translate(515,2)"/>
<path d="M0 0 C1.84851563 -0.01836914 1.84851563 -0.01836914 3.734375 -0.03710938 C5.51714844 -0.04000977 5.51714844 -0.04000977 7.3359375 -0.04296875 C8.96474854 -0.04913208 8.96474854 -0.04913208 10.62646484 -0.05541992 C13.72039108 0.1952279 15.87708272 0.75898757 18.625 2.1875 C20.19438028 5.10206338 20.625 6.86691669 20.625 10.1875 C17.985 10.1875 15.345 10.1875 12.625 10.1875 C12.625 8.8675 12.625 7.5475 12.625 6.1875 C4.705 6.1875 -3.215 6.1875 -11.375 6.1875 C-11.375 12.4575 -11.375 18.7275 -11.375 25.1875 C-3.455 25.1875 4.465 25.1875 12.625 25.1875 C12.625 24.1975 12.625 23.2075 12.625 22.1875 C15.265 22.1875 17.905 22.1875 20.625 22.1875 C20.02235099 27.61134106 20.02235099 27.61134106 18.375 30 C13.36885881 33.39702438 6.03898028 32.40833637 0.25 32.4375 C-0.76578125 32.458125 -1.7815625 32.47875 -2.828125 32.5 C-8.76178053 32.53082418 -13.20877057 32.23315592 -18.375 29.1875 C-19.80227587 24.90567238 -19.59947769 20.79804564 -19.625 16.3125 C-19.645625 15.41402344 -19.66625 14.51554688 -19.6875 13.58984375 C-19.71641395 8.69615718 -19.73610097 5.06690158 -16.375 1.1875 C-11.11398325 -0.56617225 -5.50597029 0.00286173 0 0 Z " fill="#121212" transform="translate(694.375,0.8125)"/>
<path d="M0 0 C1.51400391 0.01740234 1.51400391 0.01740234 3.05859375 0.03515625 C4.07050781 0.04417969 5.08242188 0.05320313 6.125 0.0625 C7.29869141 0.07990234 7.29869141 0.07990234 8.49609375 0.09765625 C22.49609375 27.7778593 22.49609375 27.7778593 22.49609375 30.09765625 C19.85609375 30.09765625 17.21609375 30.09765625 14.49609375 30.09765625 C13.83609375 28.77765625 13.17609375 27.45765625 12.49609375 26.09765625 C6.22609375 26.09765625 -0.04390625 26.09765625 -6.50390625 26.09765625 C-7.16390625 27.41765625 -7.82390625 28.73765625 -8.50390625 30.09765625 C-11.14390625 30.09765625 -13.78390625 30.09765625 -16.50390625 30.09765625 C-13.98192337 23.23715737 -10.94000479 16.63709739 -7.81640625 10.03515625 C-7.41172119 9.17752686 -7.00703613 8.31989746 -6.59008789 7.4362793 C-3.10588263 0.12113427 -3.10588263 0.12113427 0 0 Z M1.49609375 7.09765625 C0.65790217 8.72015566 -0.17431785 10.34574122 -1.00390625 11.97265625 C-1.46796875 12.87757812 -1.93203125 13.7825 -2.41015625 14.71484375 C-3.64296214 16.96362484 -3.64296214 16.96362484 -3.50390625 19.09765625 C0.78609375 19.09765625 5.07609375 19.09765625 9.49609375 19.09765625 C7.84609375 15.13765625 6.19609375 11.17765625 4.49609375 7.09765625 C3.50609375 7.09765625 2.51609375 7.09765625 1.49609375 7.09765625 Z " fill="#121212" transform="translate(640.50390625,1.90234375)"/>
<path d="M0 0 C13.2 0 26.4 0 40 0 C40 1.65 40 3.3 40 5 C34.39 5 28.78 5 23 5 C23 13.25 23 21.5 23 30 C20.69 30 18.38 30 16 30 C16 21.75 16 13.5 16 5 C10.72 5 5.44 5 0 5 C0 3.35 0 1.7 0 0 Z " fill="#121212" transform="translate(729,2)"/>
</svg>
