<?xml version="1.0" encoding="UTF-8"?>
<svg version="1.1" xmlns="http://www.w3.org/2000/svg" width="500" height="500">
<path d="M0 0 C2.63068701 2.29124352 5.22717432 4.60863431 7.7890625 6.9765625 C9.54665377 8.58510009 11.31875138 10.08925374 13.1875 11.5625 C16.85705843 14.74278397 19.89747789 18.27434978 23 22 C23.64066406 22.7528125 24.28132812 23.505625 24.94140625 24.28125 C46.51759244 50.29089911 55.5527016 85.041704 52.79345703 118.50488281 C50.81186099 138.18598977 45.82640471 156.7838599 36 174 C35.46890625 174.95777344 34.9378125 175.91554688 34.390625 176.90234375 C17.87161027 204.74751463 -10.77563768 226.82945568 -42 235 C-45.07632858 235.76133104 -48.15965779 236.48530894 -51.25 237.1875 C-51.9824292 237.35459473 -52.7148584 237.52168945 -53.46948242 237.69384766 C-76.19311663 242.6560986 -100.92774334 241.13319356 -122.7578125 233.17578125 C-125.49954585 232.18149 -128.17854264 231.40442769 -131 230.6875 C-158.98267267 222.36707075 -183.98762629 195.86778925 -198.02441406 171.19970703 C-215.78107913 138.40906554 -216.79977236 98.72087549 -206.54223633 63.54614258 C-203.93760158 55.19855977 -200.33068235 47.57760599 -196 40 C-195.44570312 39.00742188 -194.89140625 38.01484375 -194.3203125 36.9921875 C-190.47883352 30.54070844 -185.80097665 25.23512305 -180.6484375 19.82421875 C-178.81053886 17.86433569 -177.08927552 15.92864482 -175.39453125 13.85546875 C-172.25345243 10.10974506 -168.7435416 7.12291918 -165 4 C-164.25878906 3.35933594 -163.51757812 2.71867187 -162.75390625 2.05859375 C-119.56313792 -34.181936 -43.63531903 -37.25673419 0 0 Z " fill="#EF5514" transform="translate(330,144)"/>
<path d="M0 0 C6.25225461 0.44658962 10.59131012 7.66911527 14.5625 12 C15.62365367 13.15368653 16.68485289 14.30733117 17.74609375 15.4609375 C18.28476074 16.04713867 18.82342773 16.63333984 19.37841797 17.23730469 C21.45463744 19.49420089 23.53694727 21.74542466 25.61938477 23.99658203 C28.08305593 26.661198 30.54208166 29.33007792 33 32 C33.48339844 32.52464844 33.96679688 33.04929688 34.46484375 33.58984375 C35.8539392 35.09940277 37.23997645 36.61170525 38.625 38.125 C39.42164063 38.99382812 40.21828125 39.86265625 41.0390625 40.7578125 C43 43 43 43 45 46 C52.05862781 45.43232031 58.29463395 43.45267023 64.98046875 41.18359375 C66.11148514 40.80767593 67.24250153 40.43175812 68.40779114 40.04444885 C72.00342313 38.84917398 75.59579702 37.64452601 79.1875 36.4375 C83.92821563 34.84439427 88.67201084 33.26100414 93.41796875 31.68359375 C95.04776924 31.13051796 95.04776924 31.13051796 96.710495 30.56626892 C97.72537491 30.22914383 98.74025482 29.89201874 99.78588867 29.54467773 C100.67443039 29.24569077 101.56297211 28.9467038 102.47843933 28.63865662 C105 28 105 28 110 28 C114.62 48.79 119.24 69.58 124 91 C144.68524578 95.48670855 144.68524578 95.48670855 165.37670898 99.94458008 C167.95840079 100.51018068 170.53987782 101.0767629 173.12109375 101.64453125 C173.79608414 101.78726974 174.47107452 101.93000824 175.16651917 102.07707214 C177.1480848 102.49716775 179.12579054 102.93534641 181.10327148 103.37426758 C182.22023911 103.61631424 183.33720673 103.8583609 184.48802185 104.10774231 C185.31697464 104.40218735 186.14592743 104.69663239 187 105 C188.21666275 108.64998824 187.65902927 109.79598701 186.47705078 113.40185547 C186.11982941 114.50665253 185.76260803 115.61144958 185.39456177 116.74972534 C184.99880951 117.94348785 184.60305725 119.13725037 184.1953125 120.3671875 C183.58634444 122.24169881 182.97737884 124.11621092 182.36855888 125.99077034 C181.51205868 128.62030555 180.64738742 131.24712615 179.78283691 133.87402344 C178.27478924 138.46113005 176.77863545 143.05212486 175.28390503 147.64358521 C174.48732284 150.08769654 173.68724464 152.53067179 172.8833313 154.97238159 C172.5198056 156.08348297 172.15627991 157.19458435 171.78173828 158.33935547 C171.46117462 159.31403778 171.14061096 160.28872009 170.81033325 161.29293823 C170.03865428 163.87086852 169.35235624 166.33089519 169 169 C170.47196574 171.06395627 170.47196574 171.06395627 173 173 C174.2104008 174.06014415 175.41848883 175.12293132 176.625 176.1875 C177.32109375 176.79207031 178.0171875 177.39664063 178.734375 178.01953125 C182.86615831 181.63127977 186.92685898 185.32242958 191 189 C192.68711808 190.52125701 194.37461446 192.04209457 196.0625 193.5625 C196.88234375 194.30113281 197.7021875 195.03976563 198.546875 195.80078125 C200.95829144 197.96260841 203.38421432 200.1071585 205.8125 202.25 C207.21075379 203.49729188 208.6068603 204.74699861 210 206 C210.54011719 206.4846875 211.08023437 206.969375 211.63671875 207.46875 C214.12744666 209.80960603 215.61527518 211.53747664 216 215 C215.278125 215.556875 214.55625 216.11375 213.8125 216.6875 C211.01526379 218.98744977 208.54347379 221.42325402 206 224 C193.97513974 236.18029076 193.97513974 236.18029076 188.140625 241.14453125 C184.7577991 244.07672523 181.48832937 247.13272498 178.2109375 250.18188477 C175.57569456 252.61800303 172.92134093 254.9133279 170 257 C170.56767969 264.05862781 172.54732977 270.29463395 174.81640625 276.98046875 C175.19232407 278.11148514 175.56824188 279.24250153 175.95555115 280.40779114 C177.15082602 284.00342313 178.35547399 287.59579702 179.5625 291.1875 C181.15560573 295.92821563 182.73899586 300.67201084 184.31640625 305.41796875 C184.86948204 307.04776924 184.86948204 307.04776924 185.43373108 308.710495 C185.77085617 309.72537491 186.10798126 310.74025482 186.45532227 311.78588867 C186.75430923 312.67443039 187.0532962 313.56297211 187.36134338 314.47843933 C188 317 188 317 188 322 C167.21 326.62 146.42 331.24 125 336 C120.51329145 356.68524578 120.51329145 356.68524578 116.05541992 377.37670898 C115.48981932 379.95840079 114.9232371 382.53987782 114.35546875 385.12109375 C114.21273026 385.79608414 114.06999176 386.47107452 113.92292786 387.16651917 C113.50283225 389.1480848 113.06465359 391.12579054 112.62573242 393.10327148 C112.38368576 394.22023911 112.1416391 395.33720673 111.89225769 396.48802185 C111.59781265 397.31697464 111.30336761 398.14592743 111 399 C107.35001176 400.21666275 106.20401299 399.65902927 102.59814453 398.47705078 C101.49334747 398.11982941 100.38855042 397.76260803 99.25027466 397.39456177 C98.05651215 396.99880951 96.86274963 396.60305725 95.6328125 396.1953125 C93.75830119 395.58634444 91.88378908 394.97737884 90.00922966 394.36855888 C87.37969445 393.51205868 84.75287385 392.64738742 82.12597656 391.78283691 C77.53886995 390.27478924 72.94787514 388.77863545 68.35641479 387.28390503 C65.91230346 386.48732284 63.46932821 385.68724464 61.02761841 384.8833313 C59.91651703 384.5198056 58.80541565 384.15627991 57.66064453 383.78173828 C56.19862106 383.30089279 56.19862106 383.30089279 54.70706177 382.81033325 C50.90324089 381.66713822 50.90324089 381.66713822 47 381 C43.38198818 383.99555817 40.59585975 387.63850258 37.6875 391.3125 C34.29649305 395.5076761 30.7622667 399.35245017 26.8984375 403.109375 C23.74900982 406.24584207 20.89832945 409.63338152 18 413 C15.35504706 416.01990796 12.69020932 419.02033778 10 422 C9.51273438 422.54269531 9.02546875 423.08539063 8.5234375 423.64453125 C6.18554948 426.13301942 4.45808194 427.61576867 1 428 C0.443125 427.2575 -0.11375 426.515 -0.6875 425.75 C-2.84384254 422.99462323 -2.84384254 422.99462323 -5.3125 421.1875 C-7.60553158 419.32107895 -9.31010167 417.57450401 -11.21484375 415.34375 C-15.40340854 410.50220879 -19.80077056 405.87762262 -24.22094727 401.24829102 C-27.34412174 397.94621066 -30.35367391 394.63491882 -33.13671875 391.0390625 C-33.85263184 390.125802 -33.85263184 390.125802 -34.58300781 389.1940918 C-35.46161572 388.05465707 -36.31817859 386.89774446 -37.14746094 385.72192383 C-38.4405105 383.93605546 -38.4405105 383.93605546 -41 382 C-48.02739485 382.25703859 -54.36667594 384.57177979 -60.98046875 386.81640625 C-62.11148514 387.19232407 -63.24250153 387.56824188 -64.40779114 387.95555115 C-68.00342313 389.15082602 -71.59579702 390.35547399 -75.1875 391.5625 C-79.92821563 393.15560573 -84.67201084 394.73899586 -89.41796875 396.31640625 C-90.50450241 396.68512344 -91.59103607 397.05384064 -92.710495 397.43373108 C-93.72537491 397.77085617 -94.74025482 398.10798126 -95.78588867 398.45532227 C-96.67443039 398.75430923 -97.56297211 399.0532962 -98.47843933 399.36134338 C-101 400 -101 400 -106 400 C-110.62 379.21 -115.24 358.42 -120 337 C-140.68524578 332.51329145 -140.68524578 332.51329145 -161.37670898 328.05541992 C-163.95840079 327.48981932 -166.53987782 326.9232371 -169.12109375 326.35546875 C-169.79608414 326.21273026 -170.47107452 326.06999176 -171.16651917 325.92292786 C-173.1480848 325.50283225 -175.12579054 325.06465359 -177.10327148 324.62573242 C-178.22023911 324.38368576 -179.33720673 324.1416391 -180.48802185 323.89225769 C-181.31697464 323.59781265 -182.14592743 323.30336761 -183 323 C-184.21666275 319.35001176 -183.65902927 318.20401299 -182.47705078 314.59814453 C-181.94121872 312.94094894 -181.94121872 312.94094894 -181.39456177 311.25027466 C-180.99880951 310.05651215 -180.60305725 308.86274963 -180.1953125 307.6328125 C-179.58634444 305.75830119 -178.97737884 303.88378908 -178.36855888 302.00922966 C-177.51205868 299.37969445 -176.64738742 296.75287385 -175.78283691 294.12597656 C-174.27478924 289.53886995 -172.77863545 284.94787514 -171.28390503 280.35641479 C-170.48732284 277.91230346 -169.68724464 275.46932821 -168.8833313 273.02761841 C-168.5198056 271.91651703 -168.15627991 270.80541565 -167.78173828 269.66064453 C-167.46117462 268.68596222 -167.14061096 267.71127991 -166.81033325 266.70706177 C-166.03865428 264.12913148 -165.35235624 261.66910481 -165 259 C-166.47196574 256.93604373 -166.47196574 256.93604373 -169 255 C-170.2104008 253.93985585 -171.41848883 252.87706868 -172.625 251.8125 C-173.32367188 251.20535156 -174.02234375 250.59820312 -174.7421875 249.97265625 C-181.50969491 244.05986863 -188.12245449 237.97525309 -194.73364258 231.88916016 C-197.42740509 229.41670073 -200.14558194 226.98599158 -202.9375 224.625 C-211.51968947 217.32279478 -211.51968947 217.32279478 -212 213 C-211.2575 212.443125 -210.515 211.88625 -209.75 211.3125 C-206.99462323 209.15615746 -206.99462323 209.15615746 -205.1875 206.6875 C-203.32402938 204.39809324 -201.58199954 202.69519627 -199.35546875 200.79296875 C-195.1746312 197.17543609 -191.14074736 193.42386644 -187.125 189.625 C-170.58819788 174.05879859 -170.58819788 174.05879859 -166 171 C-166.56767969 163.94137219 -168.54732977 157.70536605 -170.81640625 151.01953125 C-171.19232407 149.88851486 -171.56824188 148.75749847 -171.95555115 147.59220886 C-173.15082602 143.99657687 -174.35547399 140.40420298 -175.5625 136.8125 C-177.15560573 132.07178437 -178.73899586 127.32798916 -180.31640625 122.58203125 C-180.68512344 121.49549759 -181.05384064 120.40896393 -181.43373108 119.289505 C-181.77085617 118.27462509 -182.10798126 117.25974518 -182.45532227 116.21411133 C-182.75430923 115.32556961 -183.0532962 114.43702789 -183.36134338 113.52156067 C-184 111 -184 111 -184 106 C-163.21 101.38 -142.42 96.76 -121 92 C-116.51329145 71.31475422 -116.51329145 71.31475422 -112.05541992 50.62329102 C-111.48981932 48.04159921 -110.9232371 45.46012218 -110.35546875 42.87890625 C-110.21273026 42.20391586 -110.06999176 41.52892548 -109.92292786 40.83348083 C-109.50283225 38.8519152 -109.06465359 36.87420946 -108.62573242 34.89672852 C-108.38368576 33.77976089 -108.1416391 32.66279327 -107.89225769 31.51197815 C-107.59781265 30.68302536 -107.30336761 29.85407257 -107 29 C-103.35001176 27.78333725 -102.20401299 28.34097073 -98.59814453 29.52294922 C-97.49334747 29.88017059 -96.38855042 30.23739197 -95.25027466 30.60543823 C-93.45963089 31.19906662 -93.45963089 31.19906662 -91.6328125 31.8046875 C-89.75830119 32.41365556 -87.88378908 33.02262116 -86.00922966 33.63144112 C-83.37969445 34.48794132 -80.75287385 35.35261258 -78.12597656 36.21716309 C-73.53886995 37.72521076 -68.94787514 39.22136455 -64.35641479 40.71609497 C-61.91230346 41.51267716 -59.46932821 42.31275536 -57.02761841 43.1166687 C-55.91651703 43.4801944 -54.80541565 43.84372009 -53.66064453 44.21826172 C-52.68596222 44.53882538 -51.71127991 44.85938904 -50.70706177 45.18966675 C-48.12913148 45.96134572 -45.66910481 46.64764376 -43 47 C-40.93604373 45.52803426 -40.93604373 45.52803426 -39 43 C-37.93985585 41.7895992 -36.87706868 40.58151117 -35.8125 39.375 C-35.20535156 38.67632812 -34.59820312 37.97765625 -33.97265625 37.2578125 C-28.05986863 30.49030509 -21.97525309 23.87754551 -15.88916016 17.26635742 C-12.94423043 14.05783508 -10.0849207 10.79324657 -7.27734375 7.46484375 C-5.2950318 5.19155023 -3.16295052 3.10115193 -1 1 C-0.67 0.67 -0.34 0.34 0 0 Z M-62 82 C-62.8142041 82.38317383 -63.6284082 82.76634766 -64.46728516 83.16113281 C-75.66260849 88.51398598 -84.92844274 94.56134208 -94 103 C-94.89074219 103.7734375 -95.78148437 104.546875 -96.69921875 105.34375 C-124.26033824 129.31728119 -142.14080749 165.26776828 -144.87109375 201.82910156 C-146.55225212 230.1413369 -140.9093013 255.38033059 -129 281 C-128.66452148 281.72316406 -128.32904297 282.44632813 -127.98339844 283.19140625 C-123.30419714 293.07342242 -117.32478058 300.92734392 -110 309 C-108.76871603 310.43568685 -107.53922639 311.87291697 -106.3125 313.3125 C-100.62519078 319.72073574 -94.65119959 325.4291915 -87.9375 330.75 C-87.07112915 331.43993042 -87.07112915 331.43993042 -86.18725586 332.14379883 C-82.29424412 335.17378146 -78.32740751 337.62988231 -74 340 C-72.40285156 340.92039062 -72.40285156 340.92039062 -70.7734375 341.859375 C-38.59355457 359.76174665 -3.11098307 365.2157897 33 358 C34.24394531 357.75636719 35.48789062 357.51273437 36.76953125 357.26171875 C48.75991845 354.4723343 59.88540634 349.18203172 71 344 C71.68964844 343.6812793 72.37929688 343.36255859 73.08984375 343.03417969 C81.66578348 338.99979944 88.5247169 333.64079077 95.50390625 327.34472656 C96.88275935 326.10537883 98.28418657 324.89126915 99.6875 323.6796875 C105.96137492 318.2096528 111.56832523 312.30142489 117 306 C117.79019531 305.14019531 118.58039063 304.28039062 119.39453125 303.39453125 C140.76182354 278.3682196 151.51110869 238.47700574 149 206 C147.13268935 185.19052949 142.11016679 166.76083713 133 148 C132.65453125 147.26861816 132.3090625 146.53723633 131.953125 145.78369141 C127.01840281 135.40558396 121.18782882 126.91558017 113.37646484 118.49560547 C111.4462005 116.3982661 109.60636465 114.22521953 107.75 112.0625 C104.1002406 108.00307373 100.21045955 104.4666117 96 101 C95.0615625 100.17757812 94.123125 99.35515625 93.15625 98.5078125 C70.78431787 79.41334094 38.34041942 68.0117386 9 67 C7.96488281 66.96003906 6.92976562 66.92007813 5.86328125 66.87890625 C-18.04753098 66.41541274 -40.45521637 71.79434405 -62 82 Z " fill="#EF5514" transform="translate(248,36)"/>
<path d="M0 0 C2.49505962 2.49505962 2.35948376 3.67328888 2.625 7.125 C2.69976562 8.03507813 2.77453125 8.94515625 2.8515625 9.8828125 C2.90054687 10.58148438 2.94953125 11.28015625 3 12 C3.99 12.33 4.98 12.66 6 13 C6.04898437 14.07378906 6.09796875 15.14757812 6.1484375 16.25390625 C6.22353398 17.69012642 6.29907876 19.12632319 6.375 20.5625 C6.4059375 21.26697266 6.436875 21.97144531 6.46875 22.69726562 C6.50742187 23.39658203 6.54609375 24.09589844 6.5859375 24.81640625 C6.6173584 25.45006104 6.6487793 26.08371582 6.68115234 26.73657227 C6.97060492 29.20951666 6.97060492 29.20951666 8.00708008 32.33007812 C9.66348638 38.45230568 9.3455133 44.63464832 9.3125 50.9375 C9.31100952 51.63285858 9.30951904 52.32821716 9.3079834 53.04464722 C9.26820771 63.33185815 8.73562174 73.0304329 6 83 C5.82355957 83.6585498 5.64711914 84.31709961 5.46533203 84.99560547 C4.38228619 89.02011619 3.22621986 93.01634156 2 97 C1.34 97 0.68 97 0 97 C0.10957031 96.47535156 0.21914063 95.95070313 0.33203125 95.41015625 C6.53650435 65.09399094 8.11502427 37.37668444 -1.01171875 7.359375 C-2 4 -2 4 -2 2 C-1.34 2 -0.68 2 0 2 C0 1.34 0 0.68 0 0 Z " fill="#E87146" transform="translate(390,198)"/>
<path d="M0 0 C0.99 0 1.98 0 3 0 C3.66 1.65 4.32 3.3 5 5 C6.134375 4.835 7.26875 4.67 8.4375 4.5 C12.97060294 3.92423916 17.43747238 3.90494734 22 4 C18.18081063 6.2615937 14.02164833 7.02478554 9.734375 7.9453125 C9.03070801 8.10056396 8.32704102 8.25581543 7.60205078 8.41577148 C4.98597347 8.99133103 2.36786364 9.55762074 -0.25 10.125 C-6.1075 11.40375 -11.965 12.6825 -18 14 C-21.3 28.85 -24.6 43.7 -28 59 C-28.33 59 -28.66 59 -29 59 C-29.13534568 52.36806149 -28.92351559 46.17506186 -27.0546875 39.75 C-26.0159691 36.05677904 -25.22636927 32.39106678 -24.5 28.625 C-21.30164048 12.30164048 -21.30164048 12.30164048 -20 11 C-16.88213995 10.55244228 -13.76547023 10.18045107 -10.63476562 9.83789062 C-5.5066554 9.28209883 -5.5066554 9.28209883 -1 7 C-0.18129815 3.43793339 -0.18129815 3.43793339 0 0 Z " fill="#E88F6E" transform="translate(391,358)"/>
<path d="M0 0 C0.495 0.99 0.495 0.99 1 2 C2.85830888 2.35628752 2.85830888 2.35628752 5.0625 2.4375 C9.84372404 2.85623777 13.5638106 4.19544838 18 6 C19.3281172 6.35354433 20.66047939 6.69247209 22 7 C22 7.66 22 8.32 22 9 C21.34515625 8.87882812 20.6903125 8.75765625 20.015625 8.6328125 C17.01169329 8.08124312 14.00622672 7.53892113 11 7 C10.00484375 6.82082031 9.0096875 6.64164062 7.984375 6.45703125 C-10.94405807 3.16189827 -30.57876859 2.63552963 -49.375 7.1875 C-52.78499486 7.95180919 -53.8525731 7.97750483 -57 7 C-56 5 -56 5 -54.25 4.40234375 C-49.423095 3.40511859 -44.66329559 2.66406508 -39.75 2.24609375 C-37.97486301 2.17544605 -37.97486301 2.17544605 -37 1 C-34.78053899 0.84088597 -32.55624026 0.74854562 -30.33203125 0.68359375 C-29.65959885 0.66281265 -28.98716644 0.64203156 -28.2943573 0.62062073 C-26.13384536 0.55507203 -23.97320436 0.49632571 -21.8125 0.4375 C-20.37433624 0.3943017 -18.93618492 0.35068698 -17.49804688 0.30664062 C-11.66428033 0.13284843 -5.83700153 -0.02635089 0 0 Z " fill="#E86F43" transform="translate(269,100)"/>
<path d="M0 0 C0.66 0.33 1.32 0.66 2 1 C1.70535939 4.83032799 1.46954688 7.35234913 -0.8125 10.5 C-3 12 -3 12 -5.25 11.75 C-6.11625 11.37875 -6.11625 11.37875 -7 11 C-7.433125 12.2065625 -7.433125 12.2065625 -7.875 13.4375 C-9 16 -9 16 -11 17 C-11 16.34 -11 15.68 -11 15 C-13.87839991 16.2903172 -16.09054786 17.45406381 -18 20 C-18.144375 20.9075 -18.28875 21.815 -18.4375 22.75 C-19.15436799 26.89190393 -20.7932848 29.44078194 -23 33 C-25.31 32.67 -27.62 32.34 -30 32 C-30 32.66 -30 33.32 -30 34 C-30.66 33.67 -31.32 33.34 -32 33 C-24.5971937 23.07239553 -16.54566621 13.91207798 -7 6 C-5.66519498 4.85588141 -4.33178609 3.7101313 -3 2.5625 C-2.01 1.716875 -1.02 0.87125 0 0 Z " fill="#ED5A25" transform="translate(172,142)"/>
<path d="M0 0 C2.78002954 4.17004431 4.05103657 8.64031325 5.625 13.375 C6.11226563 14.79425781 6.11226563 14.79425781 6.609375 16.2421875 C6.91617187 17.16 7.22296875 18.0778125 7.5390625 19.0234375 C7.95986084 20.27519775 7.95986084 20.27519775 8.38916016 21.55224609 C9.03148257 24.12615676 9.11020596 26.3580037 9 29 C6.06449875 29.69721895 3.12712524 30.38309005 0.1875 31.0625 C-0.64587891 31.26166016 -1.47925781 31.46082031 -2.33789062 31.66601562 C-3.54155273 31.94155273 -3.54155273 31.94155273 -4.76953125 32.22265625 C-5.50792236 32.39547119 -6.24631348 32.56828613 -7.00708008 32.74633789 C-9 33 -9 33 -12 32 C-11.67 31.34 -11.34 30.68 -11 30 C-8.27734375 29.3671875 -8.27734375 29.3671875 -4.9375 28.875 C-3.83277344 28.70742188 -2.72804688 28.53984375 -1.58984375 28.3671875 C-0.73519531 28.24601562 0.11945313 28.12484375 1 28 C0.01 28 -0.98 28 -2 28 C-1 25 -1 25 1 23 C0.835 22.21625 0.67 21.4325 0.5 20.625 C-0.07870523 17.58679755 0.38788051 16.56042508 2 14 C1.34 13.67 0.68 13.34 0 13 C0.66 11.35 1.32 9.7 2 8 C1.34 8 0.68 8 0 8 C0 5.36 0 2.72 0 0 Z " fill="#EC5619" transform="translate(427,329)"/>
<path d="M0 0 C9.4891313 1.44202777 18.8583377 3.35459279 28.23120117 5.40405273 C29.88717953 5.76369022 31.54445323 6.11740778 33.20288086 6.46557617 C35.62126745 6.9734539 38.03538417 7.49830858 40.44921875 8.02734375 C41.19386887 8.18057602 41.93851898 8.33380829 42.70573425 8.49168396 C44.7722168 8.95678711 44.7722168 8.95678711 48 10 C49.18878413 13.56635238 48.72013686 14.60379515 47.56640625 18.10546875 C47.24736328 19.08837891 46.92832031 20.07128906 46.59960938 21.08398438 C46.25736328 22.10814453 45.91511719 23.13230469 45.5625 24.1875 C45.22412109 25.22326172 44.88574219 26.25902344 44.53710938 27.32617188 C43.69929252 29.8868234 42.85331644 32.4444802 42 35 C41.67 35 41.34 35 41 35 C40.94604522 33.37536158 40.90722805 31.75021459 40.875 30.125 C40.85179687 29.22007812 40.82859375 28.31515625 40.8046875 27.3828125 C41 25 41 25 43 23 C43.39764263 21.01178687 43.73775349 19.01055661 44 17 C44.66 17 45.32 17 46 17 C46.33 15.35 46.66 13.7 47 12 C45.54980469 11.83564453 45.54980469 11.83564453 44.0703125 11.66796875 C37.21959116 10.83367298 30.86775417 9.84700558 24.296875 7.6640625 C20.56694611 6.5856817 16.86257917 6.31149832 13 6 C13 5.34 13 4.68 13 4 C11.96939453 4.03480469 11.96939453 4.03480469 10.91796875 4.0703125 C9.56638672 4.09738281 9.56638672 4.09738281 8.1875 4.125 C7.29417969 4.14820313 6.40085937 4.17140625 5.48046875 4.1953125 C3 4 3 4 0 2 C0 1.34 0 0.68 0 0 Z " fill="#E77B55" transform="translate(387,131)"/>
<path d="M0 0 C0.33 0 0.66 0 1 0 C0.9278125 0.83917969 0.855625 1.67835938 0.78125 2.54296875 C-0.56167099 19.94498661 -0.38829896 36.58346751 2.63623047 53.80322266 C3.19717965 57.19075333 3.59951973 60.59008548 4 64 C3.34 64 2.68 64 2 64 C-1.32270836 56.93924474 -1.31806054 50.7276932 -1 43 C-1.66 43 -2.32 43 -3 43 C-3.07490483 38.48343092 -3.12895323 33.96720377 -3.16479492 29.45019531 C-3.17975744 27.91790457 -3.20013497 26.38565571 -3.22631836 24.85351562 C-3.37068569 16.18015304 -3.3496392 8.17457984 0 0 Z " fill="#EC8362" transform="translate(104,225)"/>
<path d="M0 0 C0.99 0.66 1.98 1.32 3 2 C3 2.99 3 3.98 3 5 C1.37946188 6.38903267 -0.29705213 7.71332828 -2 9 C-4.1740147 11.12611268 -6.30589231 13.28894551 -8.42993164 15.46484375 C-9.92942683 17.00039048 -11.43341349 18.53145163 -12.9375 20.0625 C-13.68676758 20.8369043 -13.68676758 20.8369043 -14.45117188 21.62695312 C-17.72946571 24.94754752 -21.03462322 27.53567494 -25 30 C-25 28.35 -25 26.7 -25 25 C-24.34 25 -23.68 25 -23 25 C-22.67 24.34 -22.34 23.68 -22 23 C-19.9375 22.375 -19.9375 22.375 -18 22 C-17.938125 21.21625 -17.87625 20.4325 -17.8125 19.625 C-17.544375 18.75875 -17.27625 17.8925 -17 17 C-14.4375 15.6875 -14.4375 15.6875 -12 15 C-12.01160156 14.37351562 -12.02320313 13.74703125 -12.03515625 13.1015625 C-12.04417969 12.28429687 -12.05320312 11.46703125 -12.0625 10.625 C-12.07410156 9.81289062 -12.08570313 9.00078125 -12.09765625 8.1640625 C-12 6 -12 6 -11 4 C-7.65626525 4.55728913 -4.96687001 5.35173889 -2 7 C-1.34 4.69 -0.68 2.38 0 0 Z M-6 7 C-6.99 7.495 -6.99 7.495 -8 8 C-7.67 8.99 -7.34 9.98 -7 11 C-6.34 11 -5.68 11 -5 11 C-5.33 9.68 -5.66 8.36 -6 7 Z " fill="#EA5E26" transform="translate(461,246)"/>
<path d="M0 0 C0.66 0.33 1.32 0.66 2 1 C1.979375 2.051875 1.95875 3.10375 1.9375 4.1875 C1.98896802 7.32704904 2.26517187 9.96883396 3 13 C2.34 13 1.68 13 1 13 C1.28875 13.54269531 1.5775 14.08539063 1.875 14.64453125 C2.431875 15.71767578 2.431875 15.71767578 3 16.8125 C3.556875 17.87404297 3.556875 17.87404297 4.125 18.95703125 C5 21 5 21 5 24 C5.639375 24.103125 6.27875 24.20625 6.9375 24.3125 C7.618125 24.539375 8.29875 24.76625 9 25 C9.33 25.99 9.66 26.98 10 28 C10.66 28.66 11.32 29.32 12 30 C9 30 9 30 7.2734375 28.55859375 C2.96079103 23.74014306 -0.60799921 18.71184099 -3.9375 13.1875 C-4.32695801 12.54159912 -4.71641602 11.89569824 -5.11767578 11.23022461 C-6.90430191 8.17737591 -8.25157621 5.44952333 -9 2 C-8.01 2 -7.02 2 -6 2 C-5.67 3.98 -5.34 5.96 -5 8 C-4.01 7.67 -3.02 7.34 -2 7 C-0.77030122 3.48809191 -0.77030122 3.48809191 0 0 Z " fill="#EC5B1E" transform="translate(139,307)"/>
<path d="M0 0 C4.38621997 1.376904 8.58847246 3.04909401 12.82543945 4.81787109 C27.30225435 10.82041907 41.41797957 14.29851501 57 16 C57 16.33 57 16.66 57 17 C48.37946661 17.31797049 40.94379839 17.13043117 32.59765625 14.7265625 C30.34684443 14.09701213 28.25303271 13.69854127 25.9375 13.4375 C23 13 23 13 20 11 C18.68 11 17.36 11 16 11 C16 10.34 16 9.68 16 9 C15.071875 9.061875 14.14375 9.12375 13.1875 9.1875 C10 9 10 9 8.25 7.5625 C7.63125 6.7890625 7.63125 6.7890625 7 6 C6.34 5.67 5.68 5.34 5 5 C5 4.34 5 3.68 5 3 C3.35 2.67 1.7 2.34 0 2 C0 1.34 0 0.68 0 0 Z " fill="#E9835E" transform="translate(181,380)"/>
<path d="M0 0 C2.45873768 0.14058476 4.91685175 0.28722999 7.375 0.4375 C8.07367188 0.47681641 8.77234375 0.51613281 9.4921875 0.55664062 C14.7734375 0.88671875 14.7734375 0.88671875 17 2 C18.38909304 2.08918777 19.78236907 2.11759541 21.17431641 2.11352539 C22.03505768 2.11344986 22.89579895 2.11337433 23.78262329 2.11329651 C24.71287323 2.10813522 25.64312317 2.10297394 26.6015625 2.09765625 C27.55316254 2.0962413 28.50476257 2.09482635 29.48519897 2.09336853 C32.53183097 2.08776012 35.57839013 2.07520619 38.625 2.0625 C40.68749894 2.05748608 42.74999903 2.05292299 44.8125 2.04882812 C49.87502817 2.03778796 54.93750173 2.02051767 60 2 C60 2.33 60 2.66 60 3 C43.33073449 5.90803386 14.77767094 9.85178063 0 0 Z " fill="#E36F41" transform="translate(216,379)"/>
<path d="M0 0 C4.93869832 1.49266628 7.88291042 4.37540289 11.5 7.875 C12.61310274 8.93645064 13.72766338 9.99637477 14.84375 11.0546875 C15.64582886 11.81616089 15.64582886 11.81616089 16.46411133 12.59301758 C17.81428336 13.82987045 19.23672352 14.9868438 20.66796875 16.12890625 C22.95754456 17.96593609 24.86995965 19.8660328 26.8125 22.0625 C27.41707031 22.73410156 28.02164062 23.40570313 28.64453125 24.09765625 C30 26 30 26 30 29 C29.34 28.67 28.68 28.34 28 28 C28 27.34 28 26.68 28 26 C26.02 25.67 24.04 25.34 22 25 C22 23.68 22 22.36 22 21 C20.54166642 19.37485532 20.54166642 19.37485532 19 18 C19 17.34 19 16.68 19 16 C16.36 16 13.72 16 11 16 C11 15.34 11 14.68 11 14 C11.66 14 12.32 14 13 14 C13 13.01 13 12.02 13 11 C11.68 11 10.36 11 9 11 C9 10.34 9 9.68 9 9 C8.34 8.67 7.68 8.34 7 8 C7 7.34 7 6.68 7 6 C5.02 6 3.04 6 1 6 C0.67 4.02 0.34 2.04 0 0 Z " fill="#E67758" transform="translate(323,140)"/>
<path d="M0 0 C3.43832904 5.56087056 2.34496882 12.43508782 2.3125 18.75 C2.31100952 19.45285126 2.30951904 20.15570251 2.3079834 20.87985229 C2.2683338 31.2232194 1.75058054 40.97591779 -1 51 C-1.17644043 51.6585498 -1.35288086 52.31709961 -1.53466797 52.99560547 C-2.61771381 57.02011619 -3.77378014 61.01634156 -5 65 C-5.66 65 -6.32 65 -7 65 C-6.89042969 64.47535156 -6.78085937 63.95070313 -6.66796875 63.41015625 C-5.80232689 59.18047527 -4.9824884 54.94957776 -4.26953125 50.69140625 C-4.07870972 49.56303345 -4.07870972 49.56303345 -3.8840332 48.41186523 C-3.63111253 46.90575718 -3.38341761 45.39876078 -3.14135742 43.89086914 C-2.20517647 38.34550442 -2.20517647 38.34550442 -0.96337891 36.25439453 C0.44887787 32.94958484 0.24571353 29.70230755 0.1953125 26.171875 C0.1924826 25.42286926 0.18965271 24.67386353 0.18673706 23.90216064 C0.1755726 21.51794224 0.15047531 19.13410421 0.125 16.75 C0.11496535 15.13021377 0.10584035 13.51042164 0.09765625 11.890625 C0.07564555 7.92693754 0.04114175 3.96353319 0 0 Z " fill="#E65821" transform="translate(397,230)"/>
<path d="M0 0 C1.11375 0.61875 1.11375 0.61875 2.25 1.25 C4.23330173 0.38350534 4.23330173 0.38350534 6.25 -0.75 C9.5 -0.875 9.5 -0.875 12.25 -0.75 C10.08890555 1.41109445 8.28042645 2.32183389 5.53125 3.6328125 C4.59925781 4.07753906 3.66726562 4.52226563 2.70703125 4.98046875 C1.73121094 5.44066406 0.75539062 5.90085937 -0.25 6.375 C-1.71373047 7.07689453 -1.71373047 7.07689453 -3.20703125 7.79296875 C-10.49400966 11.25 -10.49400966 11.25 -12.75 11.25 C-12.75 9.25 -12.75 9.25 -10.75 7.25 C-10.75 6.59 -10.75 5.93 -10.75 5.25 C-4.33393773 -1.18198302 -4.33393773 -1.18198302 0 0 Z " fill="#ED5518" transform="translate(184.75,113.75)"/>
<path d="M0 0 C0.67055285 2.93666226 1.33659053 5.87422359 2 8.8125 C2.19078125 9.64587891 2.3815625 10.47925781 2.578125 11.33789062 C2.75859375 12.14033203 2.9390625 12.94277344 3.125 13.76953125 C3.29257812 14.50792236 3.46015625 15.24631348 3.6328125 16.00708008 C4 18 4 18 4 21 C3.34 21 2.68 21 2 21 C1.525625 19.865625 1.05125 18.73125 0.5625 17.5625 C-0.63622083 14.24259834 -0.63622083 14.24259834 -2 13 C-2.07205511 11.31391034 -2.08386068 9.62499341 -2.0625 7.9375 C-2.05347656 7.01839844 -2.04445313 6.09929687 -2.03515625 5.15234375 C-2.02355469 4.44207031 -2.01195312 3.73179688 -2 3 C-3.58467728 3.28427417 -5.1677057 3.57774818 -6.75 3.875 C-7.63171875 4.03742188 -8.5134375 4.19984375 -9.421875 4.3671875 C-12.00451829 4.87464813 -12.00451829 4.87464813 -14.078125 6.1953125 C-16 7 -16 7 -18.25 6.125 C-18.8275 5.75375 -19.405 5.3825 -20 5 C-17.60712296 4.1572257 -15.21128981 3.32562998 -12.8125 2.5 C-11.80219727 2.14228516 -11.80219727 2.14228516 -10.77148438 1.77734375 C-7.06795533 0.51272408 -3.92059464 -0.30451221 0 0 Z " fill="#E78862" transform="translate(358,64)"/>
<path d="M0 0 C-0.77085938 0.31453125 -1.54171875 0.6290625 -2.3359375 0.953125 C-3.33882812 1.38109375 -4.34171875 1.8090625 -5.375 2.25 C-6.87160156 2.87648437 -6.87160156 2.87648437 -8.3984375 3.515625 C-11.18219261 5.10395374 -11.94768703 6.03323813 -13 9 C-13.66 8.34 -14.32 7.68 -15 7 C-14.71125 7.71285156 -14.4225 8.42570313 -14.125 9.16015625 C-11.98582962 14.67891872 -10.47320716 19.07358061 -11 25 C-13.20838055 21.68742918 -14.38286788 18.36583975 -15.625 14.625 C-15.85445313 13.965 -16.08390625 13.305 -16.3203125 12.625 C-17.54156384 8.97578468 -18.28256724 5.85183766 -18 2 C-15.75256955 1.46818825 -13.50192898 0.94992874 -11.25 0.4375 C-9.99703125 0.14746094 -8.7440625 -0.14257812 -7.453125 -0.44140625 C-4.40526252 -0.93444283 -2.82358172 -1.07666879 0 0 Z " fill="#E87347" transform="translate(82,140)"/>
<path d="M0 0 C2.64 0 5.28 0 8 0 C4.69622397 2.20251735 1.39324399 3.3581395 -2.3359375 4.6015625 C-3.05230377 4.8428891 -3.76867004 5.0842157 -4.50674438 5.33285522 C-6.02064614 5.84108646 -7.53534719 6.3469421 -9.05078125 6.85058594 C-11.36241844 7.62080791 -13.66949659 8.40370808 -15.9765625 9.1875 C-17.45025984 9.68046841 -18.92421028 10.17268098 -20.3984375 10.6640625 C-21.08505463 10.89839996 -21.77167175 11.13273743 -22.47909546 11.37417603 C-26.09392637 12.5618862 -29.18965598 13.274727 -33 13 C-32.67 12.01 -32.34 11.02 -32 10 C-30.7315625 9.814375 -30.7315625 9.814375 -29.4375 9.625 C-21.84647699 8.49296606 -21.84647699 8.49296606 -16 4 C-16 4.66 -16 5.32 -16 6 C-15.278125 5.690625 -14.55625 5.38125 -13.8125 5.0625 C-9.33234052 3.36999531 -4.71435678 2.76745343 0 2 C0 1.34 0 0.68 0 0 Z " fill="#E37146" transform="translate(175,423)"/>
<path d="M0 0 C0.763125 0.33 1.52625 0.66 2.3125 1 C5.38456102 2.14309247 6.89991179 1.88573949 10 1 C10.66 2.32 11.32 3.64 12 5 C12.66 5 13.32 5 14 5 C14.33 5.99 14.66 6.98 15 8 C4.88547426 6.49273734 -5.03847947 4.28008137 -15 2 C-15 1.67 -15 1.34 -15 1 C-14.08476563 1.01160156 -13.16953125 1.02320313 -12.2265625 1.03515625 C-11.03804688 1.04417969 -9.84953125 1.05320312 -8.625 1.0625 C-6.84996094 1.07990234 -6.84996094 1.07990234 -5.0390625 1.09765625 C-2.08078479 1.21466593 -2.08078479 1.21466593 0 0 Z " fill="#EB815A" transform="translate(94,360)"/>
<path d="M0 0 C0.66 0.33 1.32 0.66 2 1 C1.65132794 3.91851428 1.14140004 4.87489513 -1.1015625 6.859375 C-1.93429687 7.48328125 -2.76703125 8.1071875 -3.625 8.75 C-6.08793384 10.77207359 -6.08793384 10.77207359 -8 13 C-8.22494792 16.54292976 -8.12523754 17.84341258 -7 21 C-6.73445313 21.77988281 -6.46890625 22.55976563 -6.1953125 23.36328125 C-5.66924021 24.89390111 -5.11424034 26.41505675 -4.5234375 27.921875 C-3.92000812 30.31757971 -4.21819037 31.68584349 -5 34 C-7.51932218 30.22454519 -8.71864995 26.86140259 -9.6875 22.4375 C-9.93886719 21.32246094 -10.19023437 20.20742188 -10.44921875 19.05859375 C-11 16 -11 16 -11 12 C-9.34211215 10.65576661 -7.67423683 9.32381517 -6 8 C-4.96838392 6.01612292 -3.96476382 4.01723344 -3 2 C-2.01 1.34 -1.02 0.68 0 0 Z " fill="#DF734B" transform="translate(426,280)"/>
<path d="M0 0 C0 3.93154432 -1.25327015 6.5065403 -3 10 C-3.99 10.33 -4.98 10.66 -6 11 C-5.67 12.32 -5.34 13.64 -5 15 C-7.64738916 16.4606285 -8.89448334 17 -12 17 C-12.99 17.33 -13.98 17.66 -15 18 C-15 18.66 -15 19.32 -15 20 C-16.63790712 21.04644066 -18.31008021 22.0398183 -20 23 C-21.34631825 23.98244845 -22.68441297 24.97676564 -24 26 C-24.66 25.67 -25.32 25.34 -26 25 C-25.07058594 24.21496094 -24.14117187 23.42992187 -23.18359375 22.62109375 C-14.84207919 15.54528934 -6.8775382 8.54482019 0 0 Z " fill="#EA774D" transform="translate(364,342)"/>
<path d="M0 0 C3.3125 -0.3125 3.3125 -0.3125 7 0 C9.18418407 2.54821475 9.90041323 4.38825271 10.4375 7.6875 C10.7159375 8.8321875 10.7159375 8.8321875 11 10 C12.31647119 10.69937532 13.65022151 11.36729133 15 12 C15.5625 13.8125 15.5625 13.8125 16 16 C17.82879056 19.66533601 17.82879056 19.66533601 21 22 C20.34 23.32 19.68 24.64 19 26 C18.69449219 25.42894531 18.38898438 24.85789063 18.07421875 24.26953125 C14.20961405 17.4221049 9.53796714 11.67749657 4.390625 5.78515625 C2 3 2 3 0 0 Z " fill="#EA6F3E" transform="translate(357,150)"/>
<path d="M0 0 C0.99 0 1.98 0 3 0 C3.66 1.65 4.32 3.3 5 5 C6.134375 4.835 7.26875 4.67 8.4375 4.5 C12.97060294 3.92423916 17.43747238 3.90494734 22 4 C14.96333084 7.9377954 6.00823453 9.55871404 -2 9 C-2.33 8.34 -2.66 7.68 -3 7 C-2.34 7 -1.68 7 -1 7 C-0.67 4.69 -0.34 2.38 0 0 Z " fill="#E97243" transform="translate(391,358)"/>
<path d="M0 0 C2.31 0 4.62 0 7 0 C7 1.32 7 2.64 7 4 C7.33 3.34 7.66 2.68 8 2 C10.64 2 13.28 2 16 2 C15.34 3.32 14.68 4.64 14 6 C13.34 6 12.68 6 12 6 C12.433125 6.391875 12.86625 6.78375 13.3125 7.1875 C15.760526 9.81686126 17.39974204 12.79948407 19 16 C15.43082939 14.4585799 12.91782231 12.30524541 10.0625 9.6875 C8.75345703 8.48867187 8.75345703 8.48867187 7.41796875 7.265625 C4.88652734 4.89367667 2.41214899 2.49255396 0 0 Z " fill="#EC703E" transform="translate(333,128)"/>
<path d="M0 0 C0.6875 1.625 0.6875 1.625 1 4 C0.06833174 6.03273074 -0.9349985 8.03384339 -2 10 C-2.68636625 12.23525035 -2.68636625 12.23525035 -3 14 C-2.01 14.33 -1.02 14.66 0 15 C-1.98 15.66 -3.96 16.32 -6 17 C-5.896875 17.7425 -5.79375 18.485 -5.6875 19.25 C-6 22 -6 22 -8.5 24.3125 C-9.325 24.869375 -10.15 25.42625 -11 26 C-10.50377075 20.16739776 -8.77698522 15.90031531 -6.0625 10.75 C-5.70220703 10.04359375 -5.34191406 9.3371875 -4.97070312 8.609375 C-3.43020355 5.61348633 -1.87295112 2.80942668 0 0 Z " fill="#E68058" transform="translate(136,181)"/>
<path d="M0 0 C0.66 0 1.32 0 2 0 C1.67 2.97 1.34 5.94 1 9 C-2.73479387 10.24493129 -4.06330518 9.56794499 -7.76171875 8.34765625 C-8.87998047 7.98349609 -9.99824219 7.61933594 -11.15039062 7.24414062 C-12.31763672 6.85419922 -13.48488281 6.46425781 -14.6875 6.0625 C-15.86634766 5.67642578 -17.04519531 5.29035156 -18.25976562 4.89257812 C-21.17587944 3.93628169 -24.08902384 2.97180117 -27 2 C-22.71183357 0.68161063 -19.34857657 1.66942194 -15.125 2.8125 C-14.43019531 2.99103516 -13.73539062 3.16957031 -13.01953125 3.35351562 C-8.95473627 4.41373051 -4.97146718 5.62430369 -1 7 C-0.67 4.69 -0.34 2.38 0 0 Z " fill="#E8805B" transform="translate(358,426)"/>
<path d="M0 0 C1.05128687 3.23529832 0.91901775 5.39722097 0.125 8.6875 C-0.05804688 9.47511719 -0.24109375 10.26273438 -0.4296875 11.07421875 C-1 13 -1 13 -2 14 C-4.4375 14.1875 -4.4375 14.1875 -7 14 C-7.66 13.34 -8.32 12.68 -9 12 C-9 11.01 -9 10.02 -9 9 C-7.3603279 7.63360658 -5.68889872 6.3050581 -4 5 C-2.62631655 3.36643049 -1.28062485 1.7074998 0 0 Z " fill="#ED693B" transform="translate(45,240)"/>
<path d="M0 0 C0.33 0 0.66 0 1 0 C1 2.97 1 5.94 1 9 C1.99 8.67 2.98 8.34 4 8 C4 9.65 4 11.3 4 13 C1 12 1 12 -1 11 C-2.85742989 14.6075416 -4.38246664 18.31452273 -5.90234375 22.07421875 C-7 24 -7 24 -10 25 C-8.47011603 20.10283373 -6.52725918 15.48752826 -4.4375 10.8125 C-2.04256793 5.4770265 -2.04256793 5.4770265 0 0 Z " fill="#EA7A51" transform="translate(389,295)"/>
<path d="M0 0 C0.66 0 1.32 0 2 0 C2 1.03125 2 2.0625 2 3.125 C2.35547891 5.79109181 2.76877907 6.77966615 4.7421875 8.66015625 C6.13395028 9.65682154 7.55051108 10.61997665 8.9921875 11.54296875 C11.17240128 13.12510833 12.49124107 14.78430686 14 17 C12.68 17 11.36 17 10 17 C10 16.01 10 15.02 10 14 C6.18586998 15.1678266 6.18586998 15.1678266 3.6875 18.125 C3.460625 18.74375 3.23375 19.3625 3 20 C2.34 20 1.68 20 1 20 C1.165 19.401875 1.33 18.80375 1.5 18.1875 C2.1114124 15.88655664 2.1114124 15.88655664 2 13 C2 12.34 2 11.68 2 11 C2.66 11 3.32 11 4 11 C4 10.34 4 9.68 4 9 C2.68 8.67 1.36 8.34 0 8 C0 5.36 0 2.72 0 0 Z " fill="#EC6B3A" transform="translate(415,200)"/>
<path d="M0 0 C0.33 0.66 0.66 1.32 1 2 C-0.98 2 -2.96 2 -5 2 C-5.2475 2.78375 -5.495 3.5675 -5.75 4.375 C-7.15389099 7.32317108 -8.00675737 7.9024777 -11 9 C-11 8.67 -11 8.34 -11 8 C-14.3 8 -17.6 8 -21 8 C-17.58735448 5.44051586 -14.93258409 3.9376425 -11.0625 2.3125 C-9.53302734 1.65701172 -9.53302734 1.65701172 -7.97265625 0.98828125 C-5.0914864 0.03041532 -3.00565131 -0.20480497 0 0 Z " fill="#E66E3D" transform="translate(210,125)"/>
<path d="M0 0 C5.61 0 11.22 0 17 0 C17 0.66 17 1.32 17 2 C17.99 1.34 18.98 0.68 20 0 C20.99 0 21.98 0 23 0 C23 0.99 23 1.98 23 3 C22.34 3 21.68 3 21 3 C21 6.63 21 10.26 21 14 C19 10 19 10 18 5 C9.09 3.02 9.09 3.02 0 1 C0 0.67 0 0.34 0 0 Z " fill="#E88763" transform="translate(110,368)"/>
<path d="M0 0 C0.33 0 0.66 0 1 0 C0.85795259 1.58367747 0.71119847 3.16693318 0.5625 4.75 C0.48128906 5.63171875 0.40007812 6.5134375 0.31640625 7.421875 C0.03761535 9.69350452 -0.38790577 11.79851823 -1 14 C0.65 13.34 2.3 12.68 4 12 C4.433125 12.474375 4.86625 12.94875 5.3125 13.4375 C7.02309613 15.23686957 7.02309613 15.23686957 10 16 C10 16.66 10 17.32 10 18 C8.60335892 17.88437394 7.20768801 17.757008 5.8125 17.625 C5.03519531 17.55539062 4.25789063 17.48578125 3.45703125 17.4140625 C0.76378783 16.96019318 -1.50342994 16.09086365 -4 15 C-3.52229477 13.06213915 -3.04278429 11.12472326 -2.5625 9.1875 C-2.29566406 8.10855469 -2.02882813 7.02960938 -1.75390625 5.91796875 C-1.23922588 3.9259157 -0.65062825 1.95188476 0 0 Z " fill="#EA805E" transform="translate(68,343)"/>
<path d="M0 0 C10.11452574 1.50726266 20.03847947 3.71991863 30 6 C30 6.33 30 6.66 30 7 C24.39 6.67 18.78 6.34 13 6 C13 5.34 13 4.68 13 4 C11.96939453 4.03480469 11.96939453 4.03480469 10.91796875 4.0703125 C9.56638672 4.09738281 9.56638672 4.09738281 8.1875 4.125 C7.29417969 4.14820313 6.40085937 4.17140625 5.48046875 4.1953125 C3 4 3 4 0 2 C0 1.34 0 0.68 0 0 Z " fill="#E99373" transform="translate(387,131)"/>
<path d="M0 0 C0.99 0 1.98 0 3 0 C2.85831863 1.43791516 2.71148957 2.8753237 2.5625 4.3125 C2.48128906 5.11300781 2.40007812 5.91351563 2.31640625 6.73828125 C2 9 2 9 1 12 C1.66 12 2.32 12 3 12 C2.6875 13.9375 2.6875 13.9375 2 16 C1.01 16.33 0.02 16.66 -1 17 C-1.66 20.63 -2.32 24.26 -3 28 C-3.99 28.33 -4.98 28.66 -6 29 C-4.12203025 21.23203421 -2.02242208 13.57287176 0.328125 5.93359375 C1.27627905 2.96210701 1.27627905 2.96210701 0 0 Z " fill="#E16C3D" transform="translate(82,292)"/>
<path d="M0 0 C2.2454657 4.19294933 3.16642951 8.38490883 4.1875 13 C4.47270508 14.21042969 4.47270508 14.21042969 4.76367188 15.4453125 C4.93833984 16.22648437 5.11300781 17.00765625 5.29296875 17.8125 C5.53309692 18.87404297 5.53309692 18.87404297 5.77807617 19.95703125 C6.02416167 22.22242559 5.67656334 23.83888247 5 26 C1.99382731 22.99382731 2.40414684 20.17618402 2 16 C0.84188612 17.05270463 0.84188612 17.05270463 0 19 C-0.66 18.67 -1.32 18.34 -2 18 C-1.67257812 17.31550781 -1.34515625 16.63101563 -1.0078125 15.92578125 C0.16848212 12.51087941 0.19777146 9.78968716 0.125 6.1875 C0.09792969 4.44533203 0.09792969 4.44533203 0.0703125 2.66796875 C0.04710937 1.78753906 0.02390625 0.90710938 0 0 Z " fill="#E8977A" transform="translate(362,87)"/>
<path d="M0 0 C-1.56367357 3.52238047 -3.69495889 6.27123994 -6.125 9.25 C-6.84945313 10.14203125 -7.57390625 11.0340625 -8.3203125 11.953125 C-8.87460937 12.62859375 -9.42890625 13.3040625 -10 14 C-10.33 12.68 -10.66 11.36 -11 10 C-10.34 10 -9.68 10 -9 10 C-9.37125 8.63875 -9.37125 8.63875 -9.75 7.25 C-10 4 -10 4 -8.4375 1.625 C-5.41791735 -0.3880551 -3.55930982 -0.32357362 0 0 Z " fill="#E87C51" transform="translate(292,418)"/>
<path d="M0 0 C0 0.99 0 1.98 0 3 C-0.66 3.66 -1.32 4.32 -2 5 C-2.6425235 7.06874034 -2.6425235 7.06874034 -3 9 C-4.134375 9.28875 -5.26875 9.5775 -6.4375 9.875 C-7.613125 10.24625 -8.78875 10.6175 -10 11 C-10.33 11.66 -10.66 12.32 -11 13 C-12.65 12.67 -14.3 12.34 -16 12 C-12.42104836 7.95924814 -8.78111679 5.58622328 -3.98828125 3.11328125 C-1.85723506 2.03824689 -1.85723506 2.03824689 0 0 Z " fill="#E75F2B" transform="translate(345,363)"/>
<path d="M0 0 C0.66 0.33 1.32 0.66 2 1 C1.51282051 7.33333333 1.51282051 7.33333333 -0.875 10.4375 C-3 12 -3 12 -6 12 C-6.83154245 9.67168113 -7.12153694 8.3889182 -6.375 6 C-4.61650446 3.4421883 -2.48597613 1.83177189 0 0 Z " fill="#ED5417" transform="translate(172,142)"/>
<path d="M0 0 C1.051875 0.5259375 1.051875 0.5259375 2.125 1.0625 C5.50268586 2.1639193 7.58080593 1.79516141 11 1 C10.01 2.485 10.01 2.485 9 4 C9.33 4.99 9.66 5.98 10 7 C10.66 7.33 11.32 7.66 12 8 C12 8.66 12 9.32 12 10 C13.32 10.33 14.64 10.66 16 11 C15.67 12.32 15.34 13.64 15 15 C14.5875 14.57589844 14.175 14.15179688 13.75 13.71484375 C9.82651222 9.73005147 5.77278943 5.99556752 1.50390625 2.3828125 C1.00761719 1.92648437 0.51132812 1.47015625 0 1 C0 0.67 0 0.34 0 0 Z " fill="#EC8865" transform="translate(62,275)"/>
<path d="M0 0 C1.0725 0.33 2.145 0.66 3.25 1 C6.99731601 2.1717751 6.99731601 2.1717751 11 2 C10.7525 3.0725 10.505 4.145 10.25 5.25 C9.57571378 9.02745496 9.57571378 9.02745496 11.9375 11.4375 C12.618125 11.953125 13.29875 12.46875 14 13 C13.67 13.66 13.34 14.32 13 15 C8.08198915 10.30165217 3.77661644 5.66492467 0 0 Z " fill="#ED8258" transform="translate(212,423)"/>
<path d="M0 0 C2.94123833 1.47061916 3.07051724 3.37168901 4.125 6.4375 C5.95967725 12.11140927 6.47156417 17.07924991 6 23 C6.66 23 7.32 23 8 23 C7.67 24.65 7.34 26.3 7 28 C5.35863139 25.0023013 4.45723254 22.19741582 3.7109375 18.8671875 C3.49179688 17.89652344 3.27265625 16.92585938 3.046875 15.92578125 C2.82515625 14.91902344 2.6034375 13.91226562 2.375 12.875 C2.14554688 11.86050781 1.91609375 10.84601563 1.6796875 9.80078125 C0 2.2921782 0 2.2921782 0 0 Z " fill="#E68968" transform="translate(131,385)"/>
<path d="M0 0 C1.9725717 0.36801711 3.92968409 0.82033974 5.875 1.3125 C6.94492188 1.57675781 8.01484375 1.84101562 9.1171875 2.11328125 C12 3 12 3 15 5 C11.30458414 5.95024979 8.69541586 5.95024979 5 5 C5 4.34 5 3.68 5 3 C3.68 3.33 2.36 3.66 1 4 C0.34 6.97 -0.32 9.94 -1 13 C-1.66 13 -2.32 13 -3 13 C-2.69240822 11.02006459 -2.3787932 9.04106401 -2.0625 7.0625 C-1.88847656 5.96035156 -1.71445313 4.85820313 -1.53515625 3.72265625 C-1 1 -1 1 0 0 Z " fill="#E98666" transform="translate(142,64)"/>
<path d="M0 0 C-0.56774707 5.05992125 -2.94789312 8.91753858 -5.4375 13.25 C-5.84548828 13.9821875 -6.25347656 14.714375 -6.67382812 15.46875 C-9.7393544 20.8696772 -9.7393544 20.8696772 -12 22 C-11.71125 21.29875 -11.4225 20.5975 -11.125 19.875 C-9.94480522 16.96403037 -9.94480522 16.96403037 -9 13.75 C-8 11 -8 11 -6 10 C-5.77488869 7.97399825 -5.5559122 5.94540724 -5.44140625 3.91015625 C-4.75218075 0.92757864 -2.97399254 0 0 0 Z " fill="#EF9D81" transform="translate(372,304)"/>
<path d="M0 0 C3.37713186 3.03941868 5.26798794 6.0508641 7.25 10.125 C8.03117187 11.70667969 8.03117187 11.70667969 8.828125 13.3203125 C10 16 10 16 10 18 C9.01 18 8.02 18 7 18 C6.67 16.02 6.34 14.04 6 12 C5.34 12 4.68 12 4 12 C4 11.34 4 10.68 4 10 C3.01 10.33 2.02 10.66 1 11 C1.020625 10.113125 1.04125 9.22625 1.0625 8.3125 C1.00713781 5.37830369 0.6694266 2.84506304 0 0 Z " fill="#E9855F" transform="translate(361,178)"/>
<path d="M0 0 C0.33 0 0.66 0 1 0 C0.85941524 2.45873768 0.71277001 4.91685175 0.5625 7.375 C0.52318359 8.07367188 0.48386719 8.77234375 0.44335938 9.4921875 C0.11328125 14.7734375 0.11328125 14.7734375 -1 17 C-1.2322646 19.71262116 -1.41936235 22.40773126 -1.5625 25.125 C-1.60568359 25.87910156 -1.64886719 26.63320312 -1.69335938 27.41015625 C-1.7994832 29.27321888 -1.90025001 31.13658524 -2 33 C-2.33 33 -2.66 33 -3 33 C-3.08837761 29.37515827 -3.14084706 25.75059983 -3.1875 22.125 C-3.21263672 21.11179688 -3.23777344 20.09859375 -3.26367188 19.0546875 C-3.32970578 12.18716112 -2.3779117 6.44654454 0 0 Z " fill="#E5724A" transform="translate(104,225)"/>
<path d="M0 0 C1.11378736 3.31822704 0.87728255 5.24820779 -0.21484375 8.546875 C-0.48876953 9.39121094 -0.76269531 10.23554688 -1.04492188 11.10546875 C-1.48674805 12.41451172 -1.48674805 12.41451172 -1.9375 13.75 C-2.22818359 14.63816406 -2.51886719 15.52632813 -2.81835938 16.44140625 C-3.53639318 18.63082079 -4.26385523 20.81662189 -5 23 C-5.33 23 -5.66 23 -6 23 C-5.59975505 17.57562763 -5.02619495 13.06548737 -3 8 C-3.29519768 5.2663568 -3.29519768 5.2663568 -4 3 C-3.34 3 -2.68 3 -2 3 C-1.34 2.01 -0.68 1.02 0 0 Z " fill="#E36B42" transform="translate(378,281)"/>
<path d="M0 0 C2.58034165 3.87051248 2.0911129 5.81071889 1.55859375 10.28125 C0.69210076 14.49858652 -1.02416813 18.19537492 -3 22 C-3.9867097 18.88925167 -3.96838493 16.83557243 -3.22265625 13.671875 C-3.03896484 12.87265625 -2.85527344 12.0734375 -2.66601562 11.25 C-2.46685547 10.425 -2.26769531 9.6 -2.0625 8.75 C-1.86720703 7.90953125 -1.67191406 7.0690625 -1.47070312 6.203125 C-0.98857714 4.13351102 -0.49536137 2.06648605 0 0 Z " fill="#E98661" transform="translate(136,88)"/>
<path d="M0 0 C1.34593385 4.03780156 -0.14436115 6.32482276 -1.8125 10 C-2.08642578 10.6290625 -2.36035156 11.258125 -2.64257812 11.90625 C-3.91779466 14.79307112 -5.24482791 17.36724187 -7 20 C-7 16.7 -7 13.4 -7 10 C-6.34 10 -5.68 10 -5 10 C-4.80664062 9.36191406 -4.61328125 8.72382813 -4.4140625 8.06640625 C-4.15367188 7.24011719 -3.89328125 6.41382813 -3.625 5.5625 C-3.36976562 4.73878906 -3.11453125 3.91507813 -2.8515625 3.06640625 C-2 1 -2 1 0 0 Z " fill="#EB9576" transform="translate(117,185)"/>
<path d="M0 0 C2 0 4 0 6 0 C5.3125 2.875 5.3125 2.875 4 6 C1.4375 7.1875 1.4375 7.1875 -1 8 C-1.33 8.99 -1.66 9.98 -2 11 C-3.125 4.25 -3.125 4.25 -2 2 C-1.34 2 -0.68 2 0 2 C0 1.34 0 0.68 0 0 Z " fill="#EC561B" transform="translate(116,178)"/>
<path d="M0 0 C-3.58727128 2.08351615 -7.20694042 2.80141379 -11.25 3.625 C-13.14492188 4.01558594 -13.14492188 4.01558594 -15.078125 4.4140625 C-16.04234375 4.60742188 -17.0065625 4.80078125 -18 5 C-18.66 7.64 -19.32 10.28 -20 13 C-20.33 13 -20.66 13 -21 13 C-21.02688151 11.35425434 -21.04634123 9.70838587 -21.0625 8.0625 C-21.07410156 7.14597656 -21.08570313 6.22945313 -21.09765625 5.28515625 C-21 3 -21 3 -20 2 C-17.58168921 1.59596515 -15.18063589 1.24647914 -12.75 0.9375 C-12.08097656 0.84662109 -11.41195313 0.75574219 -10.72265625 0.66210938 C-7.1250388 0.19208666 -3.62792471 -0.10546293 0 0 Z " fill="#E79676" transform="translate(391,367)"/>
<path d="M0 0 C1.98 0 3.96 0 6 0 C1.89962427 5.24972347 -2.52964787 9.20962911 -8 13 C-8 11.35 -8 9.7 -8 8 C-7.34 8 -6.68 8 -6 8 C-5.67 7.34 -5.34 6.68 -5 6 C-2.9375 5.375 -2.9375 5.375 -1 5 C-0.67 3.35 -0.34 1.7 0 0 Z " fill="#EC946F" transform="translate(444,263)"/>
<path d="M0 0 C0 0.99 0 1.98 0 3 C-1 4 -2 5 -3 6 C-3.7115625 7.546875 -3.7115625 7.546875 -4.4375 9.125 C-6 12 -6 12 -8.1875 12.875 C-9.0846875 12.936875 -9.0846875 12.936875 -10 13 C-10.33 14.32 -10.66 15.64 -11 17 C-12.65 17.33 -14.3 17.66 -16 18 C-10.81643758 11.86157082 -5.42287737 5.92658337 0 0 Z " fill="#EB8F70" transform="translate(234,51)"/>
<path d="M0 0 C1.9375 0.8125 1.9375 0.8125 4 2 C4.33 2.99 4.66 3.98 5 5 C5.721875 4.649375 6.44375 4.29875 7.1875 3.9375 C10.3122705 2.89590983 11.88161996 3.10903428 15 4 C15 4.99 15 5.98 15 7 C12.9375 8.25 12.9375 8.25 10 9 C5.00818534 6.84835575 2.37599113 5.03151062 0 0 Z " fill="#E8622D" transform="translate(207,417)"/>
<path d="M0 0 C0.33 0 0.66 0 1 0 C1.59066447 9.87722251 0.13506713 17.6647778 -3 27 C-3.66 27 -4.32 27 -5 27 C-4.89042969 26.47535156 -4.78085937 25.95070313 -4.66796875 25.41015625 C-2.94073701 16.97059305 -1.47670757 8.48614616 0 0 Z " fill="#EC8B71" transform="translate(395,268)"/>
<path d="M0 0 C0.8971875 0.5259375 0.8971875 0.5259375 1.8125 1.0625 C1.8125 1.7225 1.8125 2.3825 1.8125 3.0625 C2.4725 3.0625 3.1325 3.0625 3.8125 3.0625 C4.1425 4.0525 4.4725 5.0425 4.8125 6.0625 C2.83176635 5.781672 0.85291552 5.48753386 -1.125 5.1875 C-2.77822266 4.94386719 -2.77822266 4.94386719 -4.46484375 4.6953125 C-5.36332031 4.48648437 -6.26179688 4.27765625 -7.1875 4.0625 C-7.5175 3.4025 -7.8475 2.7425 -8.1875 2.0625 C-7.1975 2.0625 -6.2075 2.0625 -5.1875 2.0625 C-5.1875 1.4025 -5.1875 0.7425 -5.1875 0.0625 C-2.1875 -0.9375 -2.1875 -0.9375 0 0 Z " fill="#E75824" transform="translate(104.1875,361.9375)"/>
<path d="M0 0 C-2.73816657 2.73816657 -6.02782641 4.02844915 -9.5 5.625 C-10.18964844 5.94984375 -10.87929687 6.2746875 -11.58984375 6.609375 C-16.74274554 9 -16.74274554 9 -19 9 C-19 8.01 -19 7.02 -19 6 C-18.34 6 -17.68 6 -17 6 C-16.67 5.34 -16.34 4.68 -16 4 C-14.02 4 -12.04 4 -10 4 C-10 3.34 -10 2.68 -10 2 C-6.5980513 -0.09350689 -3.94727588 -0.17942163 0 0 Z " fill="#EFA88E" transform="translate(197,113)"/>
<path d="M0 0 C0.66 2.31 1.32 4.62 2 7 C1.01 6.67 0.02 6.34 -1 6 C-1 6.99 -1 7.98 -1 9 C-0.34 9.33 0.32 9.66 1 10 C0.34 11.32 -0.32 12.64 -1 14 C-1.69906942 12.40084119 -2.38389468 10.79544955 -3.0625 9.1875 C-3.44535156 8.29417969 -3.82820313 7.40085938 -4.22265625 6.48046875 C-5 4 -5 4 -4 1 C-2 0 -2 0 0 0 Z " fill="#EC784D" transform="translate(388,186)"/>
<path d="M0 0 C1.32 0.66 2.64 1.32 4 2 C2.90033225 3.29549899 1.79508199 4.58626071 0.6875 5.875 C0.07261719 6.59429687 -0.54226563 7.31359375 -1.17578125 8.0546875 C-3 10 -3 10 -6 12 C-6 10.02 -6 8.04 -6 6 C-5.195625 5.7525 -4.39125 5.505 -3.5625 5.25 C-0.828919 4.27761141 -0.828919 4.27761141 -0.1875 1.875 C-0.125625 1.25625 -0.06375 0.6375 0 0 Z " fill="#E97F57" transform="translate(269,439)"/>
<path d="M0 0 C3.71060708 2.11939179 6.99883918 4.4923892 10.3125 7.1875 C11.19550781 7.90292969 12.07851562 8.61835938 12.98828125 9.35546875 C13.65214844 9.89816406 14.31601563 10.44085938 15 11 C14.01 11.33 13.02 11.66 12 12 C10.31003995 10.69631653 8.64864545 9.35555293 7 8 C4.3842788 6.55600521 1.70719762 5.26291105 -1 4 C-0.67 2.68 -0.34 1.36 0 0 Z " fill="#E47D56" transform="translate(152,360)"/>
<path d="M0 0 C0 4.38618346 -2.73456783 6.55175811 -5.5 9.6875 C-6.02464844 10.29400391 -6.54929687 10.90050781 -7.08984375 11.52539062 C-8.38666902 13.02263435 -9.69249362 14.51207472 -11 16 C-11.33 15.01 -11.66 14.02 -12 13 C-11.34 13 -10.68 13 -10 13 C-10 11.68 -10 10.36 -10 9 C-9.34 9 -8.68 9 -8 9 C-8 8.34 -8 7.68 -8 7 C-7.34 7 -6.68 7 -6 7 C-6 6.01 -6 5.02 -6 4 C-3 1.8125 -3 1.8125 0 0 Z " fill="#E77D55" transform="translate(359,326)"/>
<path d="M0 0 C-3.33333333 1.33333333 -6.66666667 2.66666667 -10 4 C-10.86625 4.391875 -11.7325 4.78375 -12.625 5.1875 C-15.93494071 6.31984814 -17.8552074 5.31642481 -21 4 C-17.46272361 1.96983385 -13.90785577 1.16836008 -9.9375 0.3125 C-8.70902344 0.04050781 -7.48054688 -0.23148438 -6.21484375 -0.51171875 C-3 -1 -3 -1 0 0 Z " fill="#EA8868" transform="translate(103,135)"/>
<path d="M0 0 C0.33 0 0.66 0 1 0 C1 5.61 1 11.22 1 17 C0.01 17.33 -0.98 17.66 -2 18 C-2 18.66 -2 19.32 -2 20 C-4.31 20 -6.62 20 -9 20 C-9 19.67 -9 19.34 -9 19 C-7.35 18.67 -5.7 18.34 -4 18 C-2.68 12.06 -1.36 6.12 0 0 Z " fill="#E89475" transform="translate(131,110)"/>
<path d="M0 0 C0.66 0.66 1.32 1.32 2 2 C0.71034824 3.37562854 -0.62689293 4.70766393 -2 6 C-2.66 6 -3.32 6 -4 6 C-3.34 7.98 -2.68 9.96 -2 12 C-3.13199353 11.0919838 -4.25532363 10.17316174 -5.375 9.25 C-6.00148437 8.73953125 -6.62796875 8.2290625 -7.2734375 7.703125 C-9.08312318 5.91800519 -10.00117455 4.32050356 -11 2 C-9.68 2.33 -8.36 2.66 -7 3 C-7 3.66 -7 4.32 -7 5 C-4.37098712 3.47793991 -2.15634036 2.15634036 0 0 Z " fill="#EF7950" transform="translate(237,436)"/>
<path d="M0 0 C0.37769531 0.50144531 0.75539063 1.00289063 1.14453125 1.51953125 C2.95631232 3.26981182 2.95631232 3.26981182 5.69921875 3.07421875 C6.68535156 2.94660156 7.67148437 2.81898437 8.6875 2.6875 C9.68136719 2.56761719 10.67523438 2.44773437 11.69921875 2.32421875 C12.45847656 2.21722656 13.21773438 2.11023438 14 2 C9.69230769 5.93846154 9.69230769 5.93846154 6.1875 6.25 C5.1046875 6.12625 5.1046875 6.12625 4 6 C3.67 6.99 3.34 7.98 3 9 C1.68 8.34 0.36 7.68 -1 7 C-0.34 7 0.32 7 1 7 C0.67 4.69 0.34 2.38 0 0 Z " fill="#E1693C" transform="translate(290,79)"/>
<path d="M0 0 C0 3.95875396 -1.21313946 6.49009536 -3 10 C-5.125 11.3125 -5.125 11.3125 -7 12 C-7.33 12.66 -7.66 13.32 -8 14 C-9.32 13.67 -10.64 13.34 -12 13 C-11.55269531 12.56429688 -11.10539062 12.12859375 -10.64453125 11.6796875 C-6.85478464 7.94650427 -3.33540417 4.143987 0 0 Z " fill="#EB7E59" transform="translate(364,342)"/>
<path d="M0 0 C0 0.66 0 1.32 0 2 C-0.61875 2.28875 -1.2375 2.5775 -1.875 2.875 C-4.13325765 3.93720042 -4.13325765 3.93720042 -6 6 C-8.36509361 6.30059943 -10.74441881 6.49515012 -13.125 6.625 C-14.40632813 6.69976562 -15.68765625 6.77453125 -17.0078125 6.8515625 C-17.99523437 6.90054687 -18.98265625 6.94953125 -20 7 C-16.73726211 4.82484141 -13.69089287 3.68988059 -10 2.375 C-8.14375 1.70597656 -8.14375 1.70597656 -6.25 1.0234375 C-3 0 -3 0 0 0 Z " fill="#EA8B63" transform="translate(306,386)"/>
<path d="M0 0 C1.32 0.33 2.64 0.66 4 1 C0.7 3.97 -2.6 6.94 -6 10 C-6.66 9.67 -7.32 9.34 -8 9 C-7.67 8.34 -7.34 7.68 -7 7 C-6.34 7 -5.68 7 -5 7 C-5 5.68 -5 4.36 -5 3 C-5.66 2.67 -6.32 2.34 -7 2 C-5.68 1.67 -4.36 1.34 -3 1 C-3 1.66 -3 2.32 -3 3 C-2.01 3 -1.02 3 0 3 C0 2.01 0 1.02 0 0 Z " fill="#EC805A" transform="translate(333,351)"/>
<path d="M0 0 C1.96734263 3.75234618 3.58227574 7.64575279 5.1875 11.5625 C5.47302734 12.23474609 5.75855469 12.90699219 6.05273438 13.59960938 C8.11547503 18.65357492 8.11547503 18.65357492 7 22 C7 21.34 7 20.68 7 20 C6.34 20 5.68 20 5 20 C3.03571772 16.49235307 2.09048815 12.85305811 1 9 C0.67 8.67 0.34 8.34 0 8 C-0.14115161 5.32941149 -0.04247107 2.67567762 0 0 Z " fill="#EC9C80" transform="translate(108,289)"/>
<path d="M0 0 C0.92232422 0.46792969 0.92232422 0.46792969 1.86328125 0.9453125 C3.98337431 2.02630771 3.98337431 2.02630771 6.1875 2.875 C8 4 8 4 8.5625 5.8125 C8.706875 6.534375 8.85125 7.25625 9 8 C10.82879056 11.66533601 10.82879056 11.66533601 14 14 C13.34 15.32 12.68 16.64 12 18 C11.63648438 17.3709375 11.27296875 16.741875 10.8984375 16.09375 C7.58215671 10.44756937 4.05183182 5.14381487 0 0 Z " fill="#DF7B57" transform="translate(364,158)"/>
<path d="M0 0 C0 0.66 0 1.32 0 2 C-5.68598934 3.29227031 -11.10803482 2.90242274 -16.875 2.5625 C-17.84953125 2.51029297 -18.8240625 2.45808594 -19.828125 2.40429688 C-22.21913402 2.27536992 -24.60964426 2.14044056 -27 2 C-27 1.67 -27 1.34 -27 1 C-23.81265063 0.83036895 -20.62510059 0.66483749 -17.4375 0.5 C-16.54224609 0.45230469 -15.64699219 0.40460938 -14.72460938 0.35546875 C-9.80829229 0.10334993 -4.9226912 -0.0540213 0 0 Z " fill="#ED9476" transform="translate(268,396)"/>
<path d="M0 0 C1.32 0.33 2.64 0.66 4 1 C-1.445 5.455 -1.445 5.455 -7 10 C-7.66 8.68 -8.32 7.36 -9 6 C-8.01 6 -7.02 6 -6 6 C-5.67 4.68 -5.34 3.36 -5 2 C-3.68 2 -2.36 2 -1 2 C-0.67 1.34 -0.34 0.68 0 0 Z " fill="#E77F55" transform="translate(162,129)"/>
<path d="M0 0 C-0.33 0.99 -0.66 1.98 -1 3 C-0.01 3 0.98 3 2 3 C2 3.99 2 4.98 2 6 C-2.23429756 4.68938409 -6.07407404 3.05643741 -10 1 C-10 0.67 -10 0.34 -10 0 C-6.30458414 -0.95024979 -3.69541586 -0.95024979 0 0 Z " fill="#E97C4E" transform="translate(320,116)"/>
<path d="M0 0 C1.1875 1.625 1.1875 1.625 2 4 C1.07137808 6.03412421 0.06246527 8.03247172 -1 10 C-1.70758326 13.2366963 -1.70758326 13.2366963 -2 16 C-2.99 16 -3.98 16 -5 16 C-4.34 13.03 -3.68 10.06 -3 7 C-2.34 7 -1.68 7 -1 7 C-1.020625 6.030625 -1.04125 5.06125 -1.0625 4.0625 C-1 1 -1 1 0 0 Z " fill="#EB6738" transform="translate(142,70)"/>
<path d="M0 0 C3.45918019 1.21538764 5.44032926 2.44032926 8 5 C8.99 5 9.98 5 11 5 C11 6.98 11 8.96 11 11 C5.79857016 8.55226831 3.17811135 4.59788619 0 0 Z " fill="#E77342" transform="translate(235,448)"/>
<path d="M0 0 C1.25425781 0.00902344 2.50851563 0.01804687 3.80078125 0.02734375 C4.75339844 0.03894531 5.70601562 0.05054687 6.6875 0.0625 C6.6875 0.3925 6.6875 0.7225 6.6875 1.0625 C4.10592632 1.59382389 1.52288244 2.11284379 -1.0625 2.625 C-2.15691406 2.85219727 -2.15691406 2.85219727 -3.2734375 3.08398438 C-6.97807073 3.80807178 -9.70572322 4.16067231 -13.3125 3.0625 C-12.9825 2.4025 -12.6525 1.7425 -12.3125 1.0625 C-8.23592562 -0.14005163 -4.22285258 -0.03946591 0 0 Z " fill="#ED8C66" transform="translate(225.3125,103.9375)"/>
<path d="M0 0 C4.66666667 4.66666667 9.33333333 9.33333333 14 14 C13.67 14.66 13.34 15.32 13 16 C12.54109375 15.51789062 12.0821875 15.03578125 11.609375 14.5390625 C10.99578125 13.90742187 10.3821875 13.27578125 9.75 12.625 C9.14671875 11.99851562 8.5434375 11.37203125 7.921875 10.7265625 C6.09473404 8.92836645 6.09473404 8.92836645 3.890625 7.9609375 C2 7 2 7 0 4 C0 2.68 0 1.36 0 0 Z " fill="#EA9274" transform="translate(258,44)"/>
<path d="M0 0 C0 0.66 0 1.32 0 2 C-1.6796875 3.2890625 -1.6796875 3.2890625 -3.875 4.625 C-4.59429687 5.07101563 -5.31359375 5.51703125 -6.0546875 5.9765625 C-8 7 -8 7 -10 7 C-10 7.66 -10 8.32 -10 9 C-10.99 9.33 -11.98 9.66 -13 10 C-13.66 9.34 -14.32 8.68 -15 8 C-13.20909242 6.8529806 -11.41725003 5.70742065 -9.625 4.5625 C-8.12839844 3.60537109 -8.12839844 3.60537109 -6.6015625 2.62890625 C-2.4028777 0 -2.4028777 0 0 0 Z " fill="#EA886B" transform="translate(189,133)"/>
<path d="M0 0 C2.31 0.66 4.62 1.32 7 2 C6.07038578 3.15224028 5.1309875 4.29659176 4.1875 5.4375 C3.40439453 6.39462891 3.40439453 6.39462891 2.60546875 7.37109375 C1 9 1 9 -2 10 C-2 9.34 -2 8.68 -2 8 C-1.34 8 -0.68 8 0 8 C-0.33 7.01 -0.66 6.02 -1 5 C-0.34 5 0.32 5 1 5 C1.33 4.34 1.66 3.68 2 3 C1.01 3 0.02 3 -1 3 C-0.67 2.01 -0.34 1.02 0 0 Z " fill="#EB7043" transform="translate(339,341)"/>
<path d="M0 0 C1.25541557 3.76624671 0.37061958 5.37188934 -1 9 C-2.65 9.33 -4.3 9.66 -6 10 C-6 10.66 -6 11.32 -6 12 C-6.66 12 -7.32 12 -8 12 C-6.59023295 8.96147295 -4.91129772 6.4060405 -2.875 3.75 C-2.06675781 2.69039063 -2.06675781 2.69039063 -1.2421875 1.609375 C-0.83226562 1.07828125 -0.42234375 0.5471875 0 0 Z " fill="#E37046" transform="translate(373,330)"/>
<path d="M0 0 C0.33 0 0.66 0 1 0 C1.33 1.65 1.66 3.3 2 5 C6.29 5.99 10.58 6.98 15 8 C15 8.33 15 8.66 15 9 C12.68756208 9.02685412 10.3750373 9.04632841 8.0625 9.0625 C6.77472656 9.07410156 5.48695313 9.08570313 4.16015625 9.09765625 C1 9 1 9 0 8 C-0.14115161 5.32941149 -0.04247107 2.67567762 0 0 Z " fill="#E7987A" transform="translate(370,122)"/>
<path d="M0 0 C5.96564796 0.50771472 10.63809899 2.38592128 16 5 C15.34 5.66 14.68 6.32 14 7 C9.0276578 5.50829734 4.58154261 3.39542583 0 1 C0 0.67 0 0.34 0 0 Z " fill="#E28E6B" transform="translate(291,125)"/>
<path d="M0 0 C1.32 0.33 2.64 0.66 4 1 C2.49776416 5.20626034 -0.28550034 6.73900021 -4 9 C-4 7.68 -4 6.36 -4 5 C-3.34 5 -2.68 5 -2 5 C-2 4.01 -2 3.02 -2 2 C-1.34 2 -0.68 2 0 2 C0 1.34 0 0.68 0 0 Z " fill="#E6764A" transform="translate(257,452)"/>
<path d="M0 0 C1.4540625 0.0309375 1.4540625 0.0309375 2.9375 0.0625 C2.9375 0.7225 2.9375 1.3825 2.9375 2.0625 C-6.47252278 5.50669134 -6.47252278 5.50669134 -11.0625 5.0625 C-10.7325 4.0725 -10.4025 3.0825 -10.0625 2.0625 C-9.093125 1.918125 -8.12375 1.77375 -7.125 1.625 C-3.68000001 0.9922449 -3.49936322 0.07141558 0 0 Z " fill="#E77F5A" transform="translate(153.0625,430.9375)"/>
<path d="M0 0 C9.26888218 1.68345082 9.26888218 1.68345082 13 5 C14.31836295 5.69580267 15.64791086 6.37224433 17 7 C14 8 14 8 10.64453125 6.56640625 C9.3619696 5.90851193 8.08475943 5.24010257 6.8125 4.5625 C6.15830078 4.22412109 5.50410156 3.88574219 4.83007812 3.53710938 C3.21540701 2.70030902 1.60707237 1.85130254 0 1 C0 0.67 0 0.34 0 0 Z " fill="#EEAC90" transform="translate(183,366)"/>
<path d="M0 0 C3.66415876 2.06312314 6.70548128 4.35872176 9.8125 7.1875 C10.60269531 7.90292969 11.39289063 8.61835938 12.20703125 9.35546875 C12.79871094 9.89816406 13.39039063 10.44085938 14 11 C11 12 11 12 8.9375 11.3125 C6.65443791 9.76590955 6.21285775 8.42571551 5 6 C4.319375 5.67 3.63875 5.34 2.9375 5 C1 4 1 4 0.25 1.875 C0.1675 1.25625 0.085 0.6375 0 0 Z " fill="#EA987C" transform="translate(429,217)"/>
<path d="M0 0 C4.98012761 1.50912958 8.24259942 4.55661849 12 8 C11.01 8.495 11.01 8.495 10 9 C9.01 8.67 8.02 8.34 7 8 C7 7.34 7 6.68 7 6 C5.02 6 3.04 6 1 6 C0.67 4.02 0.34 2.04 0 0 Z " fill="#EA8762" transform="translate(323,140)"/>
<path d="M0 0 C0.66 0.33 1.32 0.66 2 1 C1.44225728 4.23490776 0.62788492 5.97855006 -2 8 C-2.99 8 -3.98 8 -5 8 C-4.64950425 4.75791433 -4.43778819 3.38472296 -1.9375 1.1875 C-1.298125 0.795625 -0.65875 0.40375 0 0 Z " fill="#E8693A" transform="translate(426,280)"/>
<path d="M0 0 C2.31 0 4.62 0 7 0 C7.103125 0.598125 7.20625 1.19625 7.3125 1.8125 C8.08876455 4.28243264 9.07088921 5.32251235 11 7 C10.67 7.66 10.34 8.32 10 9 C8.33043913 7.69118353 6.66441696 6.37785174 5 5.0625 C4.071875 4.33160156 3.14375 3.60070312 2.1875 2.84765625 C1.465625 2.23792969 0.74375 1.62820312 0 1 C0 0.67 0 0.34 0 0 Z " fill="#E1734E" transform="translate(333,128)"/>
<path d="M0 0 C0 1.32 0 2.64 0 4 C-0.99 4.33 -1.98 4.66 -3 5 C-3.33 5.66 -3.66 6.32 -4 7 C-5.32 6.67 -6.64 6.34 -8 6 C-8 5.01 -8 4.02 -8 3 C-2.25 0 -2.25 0 0 0 Z " fill="#E65C1D" transform="translate(44,246)"/>
<path d="M0 0 C1.76462683 3.08809695 2 4.23312136 2 8 C2.99 8.33 3.98 8.66 5 9 C5.33 11.31 5.66 13.62 6 16 C5.34 16 4.68 16 4 16 C3.525625 14.865625 3.05125 13.73125 2.5625 12.5625 C1.36377917 9.24259834 1.36377917 9.24259834 0 8 C-0.14115161 5.32941149 -0.04247107 2.67567762 0 0 Z " fill="#E96E41" transform="translate(356,69)"/>
<path d="M0 0 C1.65 0.33 3.3 0.66 5 1 C4.04578192 2.14926266 3.08647955 3.29430541 2.125 4.4375 C1.59132813 5.07558594 1.05765625 5.71367187 0.5078125 6.37109375 C-1 8 -1 8 -3 9 C-1.125 2.25 -1.125 2.25 0 0 Z " fill="#EF8960" transform="translate(276,431)"/>
<path d="M0 0 C0 0.99 0 1.98 0 3 C0.63808594 3.12117188 1.27617187 3.24234375 1.93359375 3.3671875 C3.17302734 3.61855469 3.17302734 3.61855469 4.4375 3.875 C5.26121094 4.03742188 6.08492187 4.19984375 6.93359375 4.3671875 C7.61550781 4.57601563 8.29742187 4.78484375 9 5 C9.33 5.66 9.66 6.32 10 7 C4.60204011 5.84941444 -0.70987333 4.57578241 -6 3 C-6 2.34 -6 1.68 -6 1 C-3.92446352 0.4465236 -2.15634036 0 0 0 Z " fill="#DD6D41" transform="translate(205,372)"/>
<path d="M0 0 C0.99 0 1.98 0 3 0 C3.33 1.65 3.66 3.3 4 5 C4.639375 5.103125 5.27875 5.20625 5.9375 5.3125 C6.618125 5.539375 7.29875 5.76625 8 6 C8.33 6.99 8.66 7.98 9 9 C9.66 9.66 10.32 10.32 11 11 C8 11 8 11 5.95703125 9.1015625 C5.24933594 8.28429687 4.54164063 7.46703125 3.8125 6.625 C3.09707031 5.81289063 2.38164062 5.00078125 1.64453125 4.1640625 C0 2 0 2 0 0 Z " fill="#E98C70" transform="translate(140,326)"/>
<path d="M0 0 C4.03384128 2.07143201 5.92856799 3.96615872 8 8 C7.01 8.495 7.01 8.495 6 9 C6 8.34 6 7.68 6 7 C4.35 7.66 2.7 8.32 1 9 C1 8.01 1 7.02 1 6 C1.66 6 2.32 6 3 6 C3 5.34 3 4.68 3 4 C2.34 4 1.68 4 1 4 C0.67 2.68 0.34 1.36 0 0 Z " fill="#EA805B" transform="translate(451,237)"/>
<path d="M0 0 C1.28497537 3.85492611 0.4052209 5.40346836 -0.9375 9.1875 C-1.31777344 10.27417969 -1.69804687 11.36085937 -2.08984375 12.48046875 C-2.39019531 13.31191406 -2.69054687 14.14335937 -3 15 C-3.33 15 -3.66 15 -4 15 C-3.9131724 12.87422093 -3.8050049 10.74930419 -3.6875 8.625 C-3.62949219 7.44164062 -3.57148438 6.25828125 -3.51171875 5.0390625 C-3.34285156 4.03617188 -3.17398437 3.03328125 -3 2 C-2.01 1.34 -1.02 0.68 0 0 Z " fill="#E06E43" transform="translate(426,169)"/>
<path d="M0 0 C0.33 0 0.66 0 1 0 C1.18451025 10.55808656 1.18451025 10.55808656 0 15 C-0.66 15 -1.32 15 -2 15 C-2.19392201 9.47322267 -1.7479503 5.24385089 0 0 Z " fill="#E18057" transform="translate(369,375)"/>
<path d="M0 0 C0 0.66 0 1.32 0 2 C-3.21314332 5.08461758 -6.75047266 5.93761816 -11 7 C-11.66 6.34 -12.32 5.68 -13 5 C-11.21046815 4.16209211 -9.41830305 3.32980604 -7.625 2.5 C-6.62726563 2.0359375 -5.62953125 1.571875 -4.6015625 1.09375 C-2 0 -2 0 0 0 Z " fill="#E98866" transform="translate(319,380)"/>
<path d="M0 0 C0.99 0 1.98 0 3 0 C3.28875 1.134375 3.5775 2.26875 3.875 3.4375 C4.24625 4.613125 4.6175 5.78875 5 7 C5.66 7.33 6.32 7.66 7 8 C7.625 11.0625 7.625 11.0625 8 14 C5.50447597 11.72402354 3.93377014 9.39278822 2.3125 6.4375 C1.87550781 5.65246094 1.43851563 4.86742187 0.98828125 4.05859375 C0 2 0 2 0 0 Z " fill="#ED957A" transform="translate(130,309)"/>
<path d="M0 0 C0.99 0.66 1.98 1.32 3 2 C3 2.99 3 3.98 3 5 C0.6875 7 0.6875 7 -2 9 C-3.0173873 9.98230498 -4.02596117 10.97469597 -5 12 C-5 10.35 -5 8.7 -5 7 C-4.01 7 -3.02 7 -2 7 C-1.34 4.69 -0.68 2.38 0 0 Z " fill="#E3724B" transform="translate(461,246)"/>
<path d="M0 0 C0.66 0 1.32 0 2 0 C2.04125 1.0725 2.0825 2.145 2.125 3.25 C2.64608309 7.23561704 2.64608309 7.23561704 6.0625 9.4375 C7.031875 9.953125 8.00125 10.46875 9 11 C7.68 11.33 6.36 11.66 5 12 C4.67 11.01 4.34 10.02 4 9 C1.98491642 8.26676204 1.98491642 8.26676204 0 8 C0 5.36 0 2.72 0 0 Z " fill="#E17651" transform="translate(415,200)"/>
<path d="M0 0 C2.70931419 0.15481795 4.46584039 0.48172081 6.4453125 2.40234375 C7.67679642 3.89771708 8.8429837 5.4462924 10 7 C7.36 7 4.72 7 2 7 C2 6.34 2 5.68 2 5 C2.66 5 3.32 5 4 5 C4 4.01 4 3.02 4 2 C2.68 2 1.36 2 0 2 C0 1.34 0 0.68 0 0 Z " fill="#E66232" transform="translate(332,149)"/>
<path d="M0 0 C6.09781001 -0.22084624 11.21642935 -0.01167675 17 2 C17 2.33 17 2.66 17 3 C10.93107371 3.25287193 5.83799592 2.69832609 0 1 C0 0.67 0 0.34 0 0 Z " fill="#E3764B" transform="translate(411,138)"/>
<path d="M0 0 C-2.61331914 1.41554787 -5.30718129 2.58131312 -8.0625 3.6875 C-8.73410156 3.95949219 -9.40570313 4.23148437 -10.09765625 4.51171875 C-12 5 -12 5 -15 4 C-10.77951468 -0.85355812 -6.02568966 -0.10042816 0 0 Z " fill="#EC9372" transform="translate(212,108)"/>
<path d="M0 0 C1.73694677 2.60542016 2.69100448 4.58342775 3.6875 7.5 C3.95949219 8.2734375 4.23148437 9.046875 4.51171875 9.84375 C5 12 5 12 4 15 C2 13 2 13 1.875 10.375 C1.91625 9.59125 1.9575 8.8075 2 8 C1.34 8 0.68 8 0 8 C0 5.36 0 2.72 0 0 Z " fill="#E47A56" transform="translate(427,329)"/>
<path d="M0 0 C0.66 0 1.32 0 2 0 C2.33 1.65 2.66 3.3 3 5 C0 7 0 7 -2.6875 6.625 C-3.450625 6.41875 -4.21375 6.2125 -5 6 C-3.38405168 3.95880212 -1.7143618 1.95927063 0 0 Z " fill="#ED8054" transform="translate(58,228)"/>
<path d="M0 0 C2.65436438 4.56087213 2.43254226 8.85108343 2 14 C1 17.125 1 17.125 0 19 C-0.66 18.67 -1.32 18.34 -2 18 C-1.67257812 17.31550781 -1.34515625 16.63101563 -1.0078125 15.92578125 C0.16848212 12.51087941 0.19777146 9.78968716 0.125 6.1875 C0.09792969 4.44533203 0.09792969 4.44533203 0.0703125 2.66796875 C0.04710937 1.78753906 0.02390625 0.90710938 0 0 Z " fill="#ED794F" transform="translate(362,87)"/>
<path d="M0 0 C1.13888672 0.23396484 1.13888672 0.23396484 2.30078125 0.47265625 C3.29464844 0.66730469 4.28851563 0.86195312 5.3125 1.0625 C6.29863281 1.25972656 7.28476563 1.45695312 8.30078125 1.66015625 C11.09276461 2.20922216 11.09276461 2.20922216 14 1 C13.34 2.65 12.68 4.3 12 6 C8.04 4.35 4.08 2.7 0 1 C0 0.67 0 0.34 0 0 Z " fill="#E16F46" transform="translate(194,81)"/>
<path d="M0 0 C-3.34520258 1.93242285 -6.44767482 2.5463853 -10.25 3.125 C-11.32765625 3.29257812 -12.4053125 3.46015625 -13.515625 3.6328125 C-14.33546875 3.75398438 -15.1553125 3.87515625 -16 4 C-15.67 3.01 -15.34 2.02 -15 1 C-9.92928099 0.28832014 -5.11791642 -0.10662326 0 0 Z " fill="#E99269" transform="translate(431,358)"/>
<path d="M0 0 C0.66 0.99 1.32 1.98 2 3 C4.56282742 3.72965366 4.56282742 3.72965366 7 4 C7 5.32 7 6.64 7 8 C2.75177626 7.52797514 0.80010291 5.03344482 -2 2 C-1.34 2 -0.68 2 0 2 C0 1.34 0 0.68 0 0 Z " fill="#E7774E" transform="translate(46,257)"/>
<path d="M0 0 C0 3.94405202 -1.49401172 5.0517785 -4 8 C-4.99 9.485 -4.99 9.485 -6 11 C-7.32 10.67 -8.64 10.34 -10 10 C-6.7 6.7 -3.4 3.4 0 0 Z " fill="#EA9072" transform="translate(70,217)"/>
<path d="M0 0 C1.46132217 2.92264434 2.34099246 4.92463146 3 8 C0.69 7.67 -1.62 7.34 -4 7 C-4 7.66 -4 8.32 -4 9 C-4.66 8.67 -5.32 8.34 -6 8 C-4.02 5.36 -2.04 2.72 0 0 Z " fill="#ED835C" transform="translate(146,167)"/>
<path d="M0 0 C4.61513112 1.31860889 8.09897612 3.21355437 12 6 C8.86650268 7.04449911 8.01031744 6.93423645 5 6 C5 5.01 5 4.02 5 3 C3.35 2.67 1.7 2.34 0 2 C0 1.34 0 0.68 0 0 Z " fill="#EA9878" transform="translate(311,133)"/>
<path d="M0 0 C7.75 -0.125 7.75 -0.125 10 1 C9.67 2.32 9.34 3.64 9 5 C8.01 5 7.02 5 6 5 C5.34 4.34 4.68 3.68 4 3 C2.67607028 1.98758315 1.34400833 0.98560611 0 0 Z " fill="#E96633" transform="translate(301,131)"/>
<path d="M0 0 C4.2343706 0.30245504 6.28000977 2.98595678 9 6 C9.33 6.66 9.66 7.32 10 8 C6.625 7.25 6.625 7.25 3 6 C1.6875 3.9375 1.6875 3.9375 1 2 C0.34 1.67 -0.32 1.34 -1 1 C-0.67 0.67 -0.34 0.34 0 0 Z " fill="#E27644" transform="translate(248,36)"/>
<path d="M0 0 C0.99 0.33 1.98 0.66 3 1 C3 1.33 3 1.66 3 2 C4.65 2.33 6.3 2.66 8 3 C4.96474514 5.02350324 3.80573798 5.32124018 0.3125 5.625 C-0.49574219 5.69976562 -1.30398438 5.77453125 -2.13671875 5.8515625 C-3.05904297 5.92503906 -3.05904297 5.92503906 -4 6 C-3.34 5.38125 -2.68 4.7625 -2 4.125 C0.2284549 2.24362573 0.2284549 2.24362573 0 0 Z " fill="#E67033" transform="translate(280,375)"/>
<path d="M0 0 C0.66 0.33 1.32 0.66 2 1 C-1.33562767 5.51290803 -3.33289301 7.68206814 -9 9 C-6.21000549 5.51250686 -3.74764169 2.49842779 0 0 Z " fill="#E0744E" transform="translate(83,206)"/>
<path d="M0 0 C1.49828872 3.88235819 0.43110582 6.43449288 -0.9375 10.25 C-1.31777344 11.32765625 -1.69804687 12.4053125 -2.08984375 13.515625 C-2.39019531 14.33546875 -2.69054687 15.1553125 -3 16 C-4.16691444 12.51580866 -3.85285758 9.89777213 -3.1875 6.3125 C-3.01605469 5.33925781 -2.84460938 4.36601562 -2.66796875 3.36328125 C-2.44753906 2.58339844 -2.22710937 1.80351562 -2 1 C-1.34 0.67 -0.68 0.34 0 0 Z " fill="#DE6F44" transform="translate(421,184)"/>
<path d="M0 0 C0.33 0.66 0.66 1.32 1 2 C-0.20821139 5.26615387 -1.95580867 7.07510336 -4.625 9.25 C-5.25664062 9.77078125 -5.88828125 10.2915625 -6.5390625 10.828125 C-7.02117187 11.21484375 -7.50328125 11.6015625 -8 12 C-8.66 11.67 -9.32 11.34 -10 11 C-6.7 7.37 -3.4 3.74 0 0 Z " fill="#E9805C" transform="translate(157,155)"/>
<path d="M0 0 C1.32 0.66 2.64 1.32 4 2 C3.02433888 3.16959987 2.044375 4.33561177 1.0625 5.5 C0.51722656 6.1496875 -0.02804688 6.799375 -0.58984375 7.46875 C-1.05519531 7.9740625 -1.52054688 8.479375 -2 9 C-2.33 9 -2.66 9 -3 9 C-3 7.35 -3 5.7 -3 4 C-2.34 4 -1.68 4 -1 4 C-0.67 2.68 -0.34 1.36 0 0 Z " fill="#E9774C" transform="translate(141,146)"/>
<path d="M0 0 C5.46864457 1.01591421 10.76390013 2.07091057 16 4 C16 4.33 16 4.66 16 5 C13.36 5 10.72 5 8 5 C8 4.34 8 3.68 8 3 C6.865625 2.87625 5.73125 2.7525 4.5625 2.625 C3.386875 2.41875 2.21125 2.2125 1 2 C0.67 1.34 0.34 0.68 0 0 Z " fill="#E1744C" transform="translate(178,76)"/>
<path d="M0 0 C0 0.66 0 1.32 0 2 C-5.19548425 4.20808081 -8.58264203 3.93402724 -14 3 C-14 2.67 -14 2.34 -14 2 C-12.22978678 1.663389 -10.45880326 1.33082707 -8.6875 1 C-7.70136719 0.814375 -6.71523438 0.62875 -5.69921875 0.4375 C-3 0 -3 0 0 0 Z " fill="#EC8F6C" transform="translate(284,393)"/>
<path d="M0 0 C3.00221784 4.50332676 4.31896025 8.57767579 4 14 C3.01 13.67 2.02 13.34 1 13 C1.66 13 2.32 13 3 13 C2.505 11.96875 2.01 10.9375 1.5 9.875 C0.02526098 6.47548422 -0.27291106 3.72978451 0 0 Z " fill="#E58E6E" transform="translate(432,344)"/>
<path d="M0 0 C4.13621084 3.3810038 7.81316569 6.66590534 11 11 C7.55835531 9.47038014 4.90848242 7.37270934 2 5 C1.34 4.67 0.68 4.34 0 4 C0 2.68 0 1.36 0 0 Z " fill="#F09E85" transform="translate(141,349)"/>
<path d="M0 0 C0.33 0 0.66 0 1 0 C0.07692308 8 0.07692308 8 -2 11 C-2.99 11.33 -3.98 11.66 -5 12 C-3.68938409 7.76570244 -2.05643741 3.92592596 0 0 Z " fill="#EFB197" transform="translate(384,308)"/>
<path d="M0 0 C2 2 2 2 2.1953125 4.8203125 C2.16050781 6.45613281 2.16050781 6.45613281 2.125 8.125 C2.10695313 9.22070312 2.08890625 10.31640625 2.0703125 11.4453125 C2.04710937 12.28835937 2.02390625 13.13140625 2 14 C-0.09970981 10.0828943 -0.99334562 6.31423304 -2 2 C-1.34 2 -0.68 2 0 2 C0 1.34 0 0.68 0 0 Z " fill="#EA8059" transform="translate(390,198)"/>
<path d="M0 0 C1.875 0.625 1.875 0.625 4 2 C5.25 5.125 5.25 5.125 6 8 C5.34 8.66 4.68 9.32 4 10 C3.32845067 8.71086513 2.66291141 7.41859796 2 6.125 C1.62875 5.40570313 1.2575 4.68640625 0.875 3.9453125 C0 2 0 2 0 0 Z " fill="#E88865" transform="translate(378,178)"/>
<path d="M0 0 C0.99 0 1.98 0 3 0 C3 0.66 3 1.32 3 2 C2.34 2 1.68 2 1 2 C1 2.66 1 3.32 1 4 C-1.31 4.66 -3.62 5.32 -6 6 C-6.33 5.01 -6.66 4.02 -7 3 C-5.5459375 2.814375 -5.5459375 2.814375 -4.0625 2.625 C-2.5465625 2.315625 -2.5465625 2.315625 -1 2 C-0.67 1.34 -0.34 0.68 0 0 Z " fill="#ED5C0A" transform="translate(221,374)"/>
<path d="M0 0 C1.73694677 2.60542016 2.69100448 4.58342775 3.6875 7.5 C3.95949219 8.2734375 4.23148437 9.046875 4.51171875 9.84375 C5 12 5 12 4 15 C0.43122553 10.34507678 0.31824005 5.65150436 0 0 Z " fill="#E1754D" transform="translate(422,314)"/>
<path d="M0 0 C3.39417765 3.12621626 5.6062718 5.56541027 7 10 C3.73539027 8.19587357 2.11070205 7.16605307 0 4 C0 2.68 0 1.36 0 0 Z " fill="#ED9272" transform="translate(354,168)"/>
<path d="M0 0 C0.33 0 0.66 0 1 0 C0.88541307 1.43836751 0.75790884 2.87570966 0.625 4.3125 C0.55539062 5.11300781 0.48578125 5.91351563 0.4140625 6.73828125 C0 9 0 9 -2 12 C-2.05395478 10.37536158 -2.09277195 8.75021459 -2.125 7.125 C-2.14820313 6.22007812 -2.17140625 5.31515625 -2.1953125 4.3828125 C-2 2 -2 2 0 0 Z " fill="#E87143" transform="translate(430,154)"/>
<path d="M0 0 C1.98 0 3.96 0 6 0 C4.84826645 2.46800047 3.95216435 4.04783565 2 6 C2 5.34 2 4.68 2 4 C1.34 4 0.68 4 0 4 C0 2.68 0 1.36 0 0 Z " fill="#E66A39" transform="translate(286,418)"/>
<path d="M0 0 C4.47238653 1.41807378 8.71146306 3.11304374 13 5 C9.71023192 6.09658936 8.28696233 5.79953138 5 5 C5 4.34 5 3.68 5 3 C3.35 2.67 1.7 2.34 0 2 C0 1.34 0 0.68 0 0 Z " fill="#EB9E7F" transform="translate(181,380)"/>
<path d="M0 0 C-0.57584432 2.38564077 -1.22227595 4.66682784 -2 7 C-2.99 7.33 -3.98 7.66 -5 8 C-4.74438677 5.6568787 -4.40729228 3.32156597 -4 1 C-2 0 -2 0 0 0 Z " fill="#EC5708" transform="translate(429,343)"/>
<path d="M0 0 C2.4375 0.75 2.4375 0.75 5 2 C5.9375 4 5.9375 4 6 6 C5.34 6.66 4.68 7.32 4 8 C3.67 7.01 3.34 6.02 3 5 C2.01 4.34 1.02 3.68 0 3 C0 2.01 0 1.02 0 0 Z " fill="#EA5708" transform="translate(163,343)"/>
<path d="M0 0 C0.33 0 0.66 0 1 0 C1 2.97 1 5.94 1 9 C0.01 9.33 -0.98 9.66 -2 10 C-2.33 10.66 -2.66 11.32 -3 12 C-2.68950274 10.56206608 -2.3765224 9.1246682 -2.0625 7.6875 C-1.88847656 6.88699219 -1.71445313 6.08648437 -1.53515625 5.26171875 C-1 3 -1 3 0 0 Z " fill="#E9704D" transform="translate(72,331)"/>
<path d="M0 0 C0.99 0 1.98 0 3 0 C3 0.66 3 1.32 3 2 C3.99 2.33 4.98 2.66 6 3 C3.69 4.65 1.38 6.3 -1 8 C-1 6.35 -1 4.7 -1 3 C-0.34 3 0.32 3 1 3 C1.33 2.34 1.66 1.68 2 1 C1.34 0.67 0.68 0.34 0 0 Z " fill="#E97349" transform="translate(148,137)"/>
<path d="M0 0 C-1.4117783 0.53394179 -2.82970244 1.05165104 -4.25 1.5625 C-5.03890625 1.85253906 -5.8278125 2.14257812 -6.640625 2.44140625 C-9.19103452 3.04522837 -10.55322229 2.8473932 -13 2 C-9.41117936 -1.58882064 -4.65095462 -1.36250433 0 0 Z " fill="#D96F48" transform="translate(199,419)"/>
<path d="M0 0 C-4.95 2.475 -4.95 2.475 -10 5 C-9.34 3.35 -8.68 1.7 -8 0 C-2.94736842 -1.47368421 -2.94736842 -1.47368421 0 0 Z " fill="#F1A990" transform="translate(317,367)"/>
<path d="M0 0 C4.42857143 5.14285714 4.42857143 5.14285714 5 9 C3.66666667 9 2.33333333 9 1 9 C0.67 6.03 0.34 3.06 0 0 Z " fill="#E68766" transform="translate(120,319)"/>
<path d="M0 0 C1.423125 0.2784375 1.423125 0.2784375 2.875 0.5625 C5.89868793 1.28686632 5.89868793 1.28686632 8 0 C8.66 0.66 9.32 1.32 10 2 C9.67 2.66 9.34 3.32 9 4 C6.69 4 4.38 4 2 4 C1.34 2.68 0.68 1.36 0 0 Z " fill="#EB5A2D" transform="translate(78,288)"/>
<path d="M0 0 C2.31 0.33 4.62 0.66 7 1 C7.33 1.99 7.66 2.98 8 4 C5.69 3.67 3.38 3.34 1 3 C0.67 2.01 0.34 1.02 0 0 Z " fill="#E78362" transform="translate(387,131)"/>
<path d="M0 0 C0.66 0.33 1.32 0.66 2 1 C2 2.32 2 3.64 2 5 C0.02 5.66 -1.96 6.32 -4 7 C-4 5 -4 5 -2 3 C-2 2.34 -2 1.68 -2 1 C-1.34 0.67 -0.68 0.34 0 0 Z " fill="#E77646" transform="translate(176,118)"/>
<path d="M0 0 C1.98 0.99 1.98 0.99 4 2 C4 2.99 4 3.98 4 5 C4.99 5.33 5.98 5.66 7 6 C5.68 6.33 4.36 6.66 3 7 C0 3.375 0 3.375 0 0 Z " fill="#E76132" transform="translate(246,457)"/>
<path d="M0 0 C2.31 0 4.62 0 7 0 C6.1875 1.9375 6.1875 1.9375 5 4 C4.01 4.33 3.02 4.66 2 5 C1.34 3.35 0.68 1.7 0 0 Z " fill="#E7591E" transform="translate(284,393)"/>
<path d="M0 0 C3.53790403 3.69172595 3.59115883 7.09390595 4 12 C3.01 12.495 3.01 12.495 2 13 C0.54815522 8.46298506 -0.23509196 4.81938524 0 0 Z " fill="#EC5109" transform="translate(131,372)"/>
<path d="M0 0 C3.63 0 7.26 0 11 0 C11.33 0.99 11.66 1.98 12 3 C6.06 2.01 6.06 2.01 0 1 C0 0.67 0 0.34 0 0 Z " fill="#EC9D7C" transform="translate(97,365)"/>
<path d="M0 0 C0 3.93169105 -1.39419615 5.16427228 -4 8 C-4.66 8 -5.32 8 -6 8 C-6 6.68 -6 5.36 -6 4 C-3 1.75 -3 1.75 0 0 Z " fill="#EC9375" transform="translate(359,326)"/>
<path d="M0 0 C1.65 0.33 3.3 0.66 5 1 C3.71937515 2.7074998 2.38232443 4.37373596 1 6 C0.34 6 -0.32 6 -1 6 C-1.33 4.68 -1.66 3.36 -2 2 C-1.01 2.33 -0.02 2.66 1 3 C0.67 2.01 0.34 1.02 0 0 Z " fill="#EC895B" transform="translate(430,276)"/>
<path d="M0 0 C-0.33 0.99 -0.66 1.98 -1 3 C-1.99 3.33 -2.98 3.66 -4 4 C-6.6875 2.0625 -6.6875 2.0625 -9 0 C-5.62182575 -0.84454356 -3.32534757 -1.10844919 0 0 Z " fill="#E95B25" transform="translate(70,274)"/>
<path d="M0 0 C0.99 0 1.98 0 3 0 C3 0.99 3 1.98 3 3 C0 5.1875 0 5.1875 -3 7 C-3 5.35 -3 3.7 -3 2 C-2.34 2 -1.68 2 -1 2 C-0.67 1.34 -0.34 0.68 0 0 Z " fill="#E9784F" transform="translate(439,269)"/>
<path d="M0 0 C0.99 0 1.98 0 3 0 C2.25 6.75 2.25 6.75 0 9 C0 6.03 0 3.06 0 0 Z " fill="#EC5607" transform="translate(98,257)"/>
<path d="M0 0 C3.44216672 2.6598561 3.99504674 5.90288286 5 10 C4.01 10 3.02 10 2 10 C0.68373308 6.38026598 0 3.90432869 0 0 Z " fill="#EA9278" transform="translate(366,186)"/>
<path d="M0 0 C0.33 0.99 0.66 1.98 1 3 C1.99 3 2.98 3 4 3 C4 3.99 4 4.98 4 6 C2.68 6.33 1.36 6.66 0 7 C0 6.34 0 5.68 0 5 C-0.66 4.67 -1.32 4.34 -2 4 C-1.34 2.68 -0.68 1.36 0 0 Z " fill="#EC5606" transform="translate(165,151)"/>
<path d="M0 0 C8.57142857 0.85714286 8.57142857 0.85714286 12 3 C8.02337646 4.32554118 5.90112089 3.34765994 2 2 C1.34 1.34 0.68 0.68 0 0 Z " fill="#DC663C" transform="translate(279,122)"/>
<path d="M0 0 C4.455 0.99 4.455 0.99 9 2 C8.67 2.99 8.34 3.98 8 5 C5.03 4.505 5.03 4.505 2 4 C2 3.34 2 2.68 2 2 C1.34 1.34 0.68 0.68 0 0 Z " fill="#EA5206" transform="translate(195,83)"/>
<path d="M0 0 C2.31 1.98 4.62 3.96 7 6 C6.34 6.66 5.68 7.32 5 8 C5 7.34 5 6.68 5 6 C3.68 6.33 2.36 6.66 1 7 C0.67 4.69 0.34 2.38 0 0 Z " fill="#E58765" transform="translate(283,72)"/>
<path d="M0 0 C-1.23884319 0.72767003 -2.49168341 1.43154815 -3.75 2.125 C-4.79414063 2.71667969 -4.79414063 2.71667969 -5.859375 3.3203125 C-8 4 -8 4 -10.265625 3.1171875 C-10.83796875 2.74851562 -11.4103125 2.37984375 -12 2 C-10.56656 1.46809459 -9.12804633 0.94984742 -7.6875 0.4375 C-6.48673828 0.00244141 -6.48673828 0.00244141 -5.26171875 -0.44140625 C-3 -1 -3 -1 0 0 Z " fill="#E9734E" transform="translate(350,67)"/>
<path d="M0 0 C2.15377564 2.62198774 3.40072174 4.64404172 4 8 C1.03 7.505 1.03 7.505 -2 7 C-2 6.34 -2 5.68 -2 5 C-1.34 4.67 -0.68 4.34 0 4 C0 2.68 0 1.36 0 0 Z " fill="#EB805A" transform="translate(116,311)"/>
<path d="M0 0 C0.66 0 1.32 0 2 0 C3.26237731 2.52475462 3.09856404 4.31200466 3.0625 7.125 C3.05347656 8.03507813 3.04445313 8.94515625 3.03515625 9.8828125 C3.02355469 10.58148438 3.01195312 11.28015625 3 12 C2.67 12 2.34 12 2 12 C1.34 8.04 0.68 4.08 0 0 Z " fill="#F08A71" transform="translate(392,213)"/>
<path d="M0 0 C0.99 0.33 1.98 0.66 3 1 C2.34 4.3 1.68 7.6 1 11 C0.67 11 0.34 11 0 11 C0 7.37 0 3.74 0 0 Z " fill="#EF8D64" transform="translate(107,204)"/>
<path d="M0 0 C0.99 0 1.98 0 3 0 C4.16552619 4.19589427 4.08954032 4.82091936 2 9 C1.34 6.03 0.68 3.06 0 0 Z " fill="#DE5D37" transform="translate(81,196)"/>
<path d="M0 0 C2.31 0.33 4.62 0.66 7 1 C7.33 1.99 7.66 2.98 8 4 C7.01 5.485 7.01 5.485 6 7 C6 5.68 6 4.36 6 3 C3.03 2.505 3.03 2.505 0 2 C0 1.34 0 0.68 0 0 Z " fill="#EA9A76" transform="translate(428,140)"/>
<path d="M0 0 C0.66 0 1.32 0 2 0 C1.67 2.97 1.34 5.94 1 9 C0.34 8.34 -0.32 7.68 -1 7 C-0.625 3.375 -0.625 3.375 0 0 Z " fill="#EC8C65" transform="translate(358,426)"/>
<path d="M0 0 C0.99 0 1.98 0 3 0 C3.33 0.99 3.66 1.98 4 3 C3.01 3.33 2.02 3.66 1 4 C0.67 4.99 0.34 5.98 0 7 C-0.93423645 3.98968256 -1.04449911 3.13349732 0 0 Z " fill="#E7591A" transform="translate(139,409)"/>
<path d="M0 0 C3.3 1.65 6.6 3.3 10 5 C8.02 5.99 8.02 5.99 6 7 C5.38125 6.360625 4.7625 5.72125 4.125 5.0625 C2.17402388 2.96116416 2.17402388 2.96116416 0 2 C0 1.34 0 0.68 0 0 Z " fill="#DE8562" transform="translate(167,372)"/>
<path d="M0 0 C1.52453435 2.94017338 2.95157395 5.85472185 4 9 C3.67 9.99 3.34 10.98 3 12 C1.09598862 10.09598862 0.06479561 8.66574314 -0.19921875 5.953125 C-0.1886578 3.96766727 -0.09915043 1.9830086 0 0 Z " fill="#F2A38A" transform="translate(108,289)"/>
<path d="M0 0 C0.66 0.33 1.32 0.66 2 1 C-0.97 4.96 -0.97 4.96 -4 9 C-5 6 -5 6 -5 4 C-4.01 3.67 -3.02 3.34 -2 3 C-1.34 2.01 -0.68 1.02 0 0 Z " fill="#DF6F48" transform="translate(130,162)"/>
<path d="M0 0 C5.75 2.625 5.75 2.625 8 6 C7.01 6 6.02 6 5 6 C5 5.34 5 4.68 5 4 C2.03 3.505 2.03 3.505 -1 3 C-0.67 2.01 -0.34 1.02 0 0 Z " fill="#E96C3E" transform="translate(346,162)"/>
<path d="M0 0 C1.65 0 3.3 0 5 0 C4.67 0.99 4.34 1.98 4 3 C0.9375 4.1875 0.9375 4.1875 -2 5 C-2 4.01 -2 3.02 -2 2 C-1.34 2 -0.68 2 0 2 C0 1.34 0 0.68 0 0 Z " fill="#EC9171" transform="translate(180,117)"/>
<path d="M0 0 C4.6302521 1.46218487 4.6302521 1.46218487 6.375 4 C7 6 7 6 6 8 C4.02 5.36 2.04 2.72 0 0 Z " fill="#E27F60" transform="translate(235,448)"/>
<path d="M0 0 C2.64 0.66 5.28 1.32 8 2 C7.67 3.32 7.34 4.64 7 6 C5.83054208 5.19152271 4.66449539 4.37810888 3.5 3.5625 C2.8503125 3.11003906 2.200625 2.65757812 1.53125 2.19140625 C1.0259375 1.79824219 0.520625 1.40507812 0 1 C0 0.67 0 0.34 0 0 Z " fill="#E97251" transform="translate(160,349)"/>
<path d="M0 0 C0.66 0.33 1.32 0.66 2 1 C1.67 3.64 1.34 6.28 1 9 C0.34 9 -0.32 9 -1 9 C-1.125 2.25 -1.125 2.25 0 0 Z " fill="#EA5607" transform="translate(397,212)"/>
<path d="M0 0 C0.66 0.33 1.32 0.66 2 1 C1.67 1.99 1.34 2.98 1 4 C0.01 4 -0.98 4 -2 4 C-2 4.66 -2 5.32 -2 6 C-3.32 5.67 -4.64 5.34 -6 5 C-4.02 3.35 -2.04 1.7 0 0 Z " fill="#EC8967" transform="translate(172,142)"/>
<path d="M0 0 C1.45945288 0.08708669 2.91765868 0.19526907 4.375 0.3125 C5.59316406 0.39951172 5.59316406 0.39951172 6.8359375 0.48828125 C9 1 9 1 11 4 C7.0507432 3.44894091 3.65079826 2.61064629 0 1 C0 0.67 0 0.34 0 0 Z " fill="#ED9D7F" transform="translate(292,109)"/>
<path d="M0 0 C3 1 3 1 4.1875 3.0625 C4.455625 3.701875 4.72375 4.34125 5 5 C3.68 5 2.36 5 1 5 C0.67 3.35 0.34 1.7 0 0 Z " fill="#EC5607" transform="translate(135,347)"/>
<path d="M0 0 C0.99 0 1.98 0 3 0 C2.39816251 2.02045442 1.72693904 4.02111039 1 6 C0.01 6.495 0.01 6.495 -1 7 C-1.33 5.35 -1.66 3.7 -2 2 C-1.34 2 -0.68 2 0 2 C0 1.34 0 0.68 0 0 Z " fill="#EE997B" transform="translate(119,178)"/>
<path d="M0 0 C0.61875 0.804375 1.2375 1.60875 1.875 2.4375 C3.74164041 5.03874519 3.74164041 5.03874519 6 6 C5.34 7.32 4.68 8.64 4 10 C0 3.375 0 3.375 0 0 Z " fill="#DC7345" transform="translate(372,166)"/>
<path d="M0 0 C0.99 0.33 1.98 0.66 3 1 C1.35 2.98 -0.3 4.96 -2 7 C-3 5 -3 5 -2.6875 2.9375 C-2 1 -2 1 0 0 Z " fill="#EA8A69" transform="translate(135,155)"/>
<path d="M0 0 C-0.33 0.66 -0.66 1.32 -1 2 C-3.375 2.75 -3.375 2.75 -6 3 C-6.99 2.34 -7.98 1.68 -9 1 C-6.04335481 -0.4783226 -3.25770263 -0.06032783 0 0 Z " fill="#F0531A" transform="translate(356,67)"/>
<path d="M0 0 C0.6875 1.8125 0.6875 1.8125 1 4 C-0.1875 5.8125 -0.1875 5.8125 -2 7 C-4.1875 6.6875 -4.1875 6.6875 -6 6 C-5.195625 5.38125 -4.39125 4.7625 -3.5625 4.125 C-0.96125481 2.25835959 -0.96125481 2.25835959 0 0 Z " fill="#EC7C4A" transform="translate(246,38)"/>
</svg>
