<?xml version="1.0" encoding="UTF-8"?>
<svg version="1.1" xmlns="http://www.w3.org/2000/svg" width="48" height="48">
<path d="M0 0 C1.16660156 0.00322266 2.33320313 0.00644531 3.53515625 0.00976562 C4.70175781 -0.00634766 5.86835938 -0.02246094 7.0703125 -0.0390625 C8.73900391 -0.0400293 8.73900391 -0.0400293 10.44140625 -0.04101562 C11.46556641 -0.04399658 12.48972656 -0.04697754 13.54492188 -0.05004883 C14.36669922 0.07281494 15.18847656 0.19567871 16.03515625 0.32226562 C18.03515625 3.32226562 18.03515625 3.32226562 17.72265625 5.94726562 C17.03515625 8.32226562 17.03515625 8.32226562 16.03515625 9.32226562 C11.89553342 9.57527801 7.74409629 9.50749111 3.59765625 9.50976562 C2.42654297 9.52201172 1.25542969 9.53425781 0.04882812 9.546875 C-1.06814453 9.54880859 -2.18511719 9.55074219 -3.3359375 9.55273438 C-4.3664624 9.55684326 -5.3969873 9.56095215 -6.45874023 9.56518555 C-8.96484375 9.32226562 -8.96484375 9.32226562 -10.96484375 7.32226562 C-11.21484375 4.82226562 -11.21484375 4.82226562 -10.96484375 2.32226562 C-7.80898456 -0.83359357 -4.30592871 0.02744219 0 0 Z " fill="#8ED0B5" transform="translate(10.96484375,25.677734375)"/>
<path d="M0 0 C1.46566406 -0.00386719 1.46566406 -0.00386719 2.9609375 -0.0078125 C3.98445313 -0.00007812 5.00796875 0.00765625 6.0625 0.015625 C7.08601563 0.00789062 8.10953125 0.00015625 9.1640625 -0.0078125 C10.14117187 -0.00523438 11.11828125 -0.00265625 12.125 0 C13.02347656 0.00225586 13.92195313 0.00451172 14.84765625 0.00683594 C17.0625 0.265625 17.0625 0.265625 19.0625 2.265625 C19.3125 4.765625 19.3125 4.765625 19.0625 7.265625 C16.53195663 9.79616837 15.62701118 9.52245729 12.125 9.53125 C11.14789063 9.53382812 10.17078125 9.53640625 9.1640625 9.5390625 C8.14054687 9.53132813 7.11703125 9.52359375 6.0625 9.515625 C5.03898437 9.52335937 4.01546875 9.53109375 2.9609375 9.5390625 C1.98382813 9.53648438 1.00671875 9.53390625 0 9.53125 C-0.89847656 9.52899414 -1.79695313 9.52673828 -2.72265625 9.52441406 C-4.9375 9.265625 -4.9375 9.265625 -6.9375 7.265625 C-7.1875 4.765625 -7.1875 4.765625 -6.9375 2.265625 C-4.40695663 -0.26491837 -3.50201118 0.00879271 0 0 Z " fill="#54C1DA" transform="translate(28.9375,14.734375)"/>
<path d="M0 0 C1.62463842 -0.05395478 3.24978541 -0.09277195 4.875 -0.125 C5.77992187 -0.14820313 6.68484375 -0.17140625 7.6171875 -0.1953125 C10 0 10 0 12 2 C12.25 4.5 12.25 4.5 12 7 C10 9 10 9 7.6171875 9.1953125 C6.71226563 9.17210937 5.80734375 9.14890625 4.875 9.125 C3.50988281 9.09792969 3.50988281 9.09792969 2.1171875 9.0703125 C1.41851562 9.04710937 0.71984375 9.02390625 0 9 C0 6.03 0 3.06 0 0 Z " fill="#33B8EF" transform="translate(36,15)"/>
<path d="M0 0 C2.45898655 -0.08076963 4.91533742 -0.14037143 7.375 -0.1875 C8.07367188 -0.21263672 8.77234375 -0.23777344 9.4921875 -0.26367188 C11.5234375 -0.29296875 11.5234375 -0.29296875 15 0 C17 3 17 3 16.6875 5.625 C16 8 16 8 15 9 C12.66702567 9.04092937 10.33294775 9.04241723 8 9 C8 6.36 8 3.72 8 1 C5.36 1 2.72 1 0 1 C0 0.67 0 0.34 0 0 Z " fill="#6BC6CB" transform="translate(12,26)"/>
<path d="M0 0 C1.32 0 2.64 0 4 0 C4.33 0.66 4.66 1.32 5 2 C5.33 1.34 5.66 0.68 6 0 C7.32 0 8.64 0 10 0 C10 2.97 10 5.94 10 9 C6.66666667 9 3.33333333 9 0 9 C0 6.03 0 3.06 0 0 Z " fill="#6AC7CF" transform="translate(10,15)"/>
<path d="M0 0 C2.64 0 5.28 0 8 0 C8 2.64 8 5.28 8 8 C2.06 8 -3.88 8 -10 8 C-10.33 7.34 -10.66 6.68 -11 6 C-7.37 6.33 -3.74 6.66 0 7 C0 4.69 0 2.38 0 0 Z " fill="#82CCBC" transform="translate(12,27)"/>
<path d="M0 0 C3.375 -0.125 3.375 -0.125 7 0 C9 2 9 2 9.25 4.5 C9 7 9 7 7 9 C3.375 9.125 3.375 9.125 0 9 C0 6.03 0 3.06 0 0 Z M3 3 C3.33 4.32 3.66 5.64 4 7 C4.66 6.67 5.32 6.34 6 6 C5.67 5.01 5.34 4.02 5 3 C4.34 3 3.68 3 3 3 Z " fill="#38BEEA" transform="translate(30,26)"/>
<path d="M0 0 C2.31 0 4.62 0 7 0 C7.87890625 6.15234375 7.87890625 6.15234375 8 8 C7 9 7 9 3.4375 9.0625 C2.303125 9.041875 1.16875 9.02125 0 9 C0 6.03 0 3.06 0 0 Z " fill="#31B8EF" transform="translate(40,26)"/>
<path d="M0 0 C1.32 0 2.64 0 4 0 C4 2.31 4 4.62 4 7 C1.69 6.67 -0.62 6.34 -3 6 C-2.42655063 3.13275314 -2.1385485 2.1385485 0 0 Z " fill="#9DD3AC" transform="translate(4,27)"/>
<path d="M0 0 C1.2065625 0.0309375 1.2065625 0.0309375 2.4375 0.0625 C2.4375 2.3725 2.4375 4.6825 2.4375 7.0625 C0.77138095 7.105221 -0.89632885 7.10313832 -2.5625 7.0625 C-3.5625 6.0625 -3.5625 6.0625 -3.6875 3.5625 C-3.51717518 0.15600356 -3.41884482 0.08338646 0 0 Z " fill="#60C4D2" transform="translate(25.5625,15.9375)"/>
<path d="M0 0 C1.32 0.33 2.64 0.66 4 1 C4.625 3.3125 4.625 3.3125 5 6 C4.01 7.485 4.01 7.485 3 9 C2.01 9 1.02 9 0 9 C0 6.03 0 3.06 0 0 Z " fill="#59C2D7" transform="translate(24,26)"/>
<path d="M0 0 C2.64 0 5.28 0 8 0 C8 0.66 8 1.32 8 2 C7.34 2 6.68 2 6 2 C6 4.31 6 6.62 6 9 C5.01 9 4.02 9 3 9 C3 6.69 3 4.38 3 2 C2.01 2 1.02 2 0 2 C0 1.34 0 0.68 0 0 Z " fill="#87CEB9" transform="translate(0,15)"/>
<path d="M0 0 C1.32 0 2.64 0 4 0 C4 2.97 4 5.94 4 9 C2.68 9 1.36 9 0 9 C0 6.03 0 3.06 0 0 Z " fill="#3FBBE8" transform="translate(36,15)"/>
<path d="M0 0 C1.32 0 2.64 0 4 0 C4 2.97 4 5.94 4 9 C2.68 9 1.36 9 0 9 C0 6.03 0 3.06 0 0 Z " fill="#49BEE0" transform="translate(32,15)"/>
<path d="M0 0 C1.32 0 2.64 0 4 0 C4 2.64 4 5.28 4 8 C2.68 8 1.36 8 0 8 C0 5.36 0 2.72 0 0 Z " fill="#77C9C4" transform="translate(16,27)"/>
<path d="M0 0 C2.97 0.495 2.97 0.495 6 1 C4.68 1.33 3.36 1.66 2 2 C2 3.65 2 5.3 2 7 C3.32 7 4.64 7 6 7 C6 7.66 6 8.32 6 9 C4.02 9 2.04 9 0 9 C0 6.03 0 3.06 0 0 Z " fill="#4BBEDF" transform="translate(30,26)"/>
<path d="M0 0 C1.98 0.99 1.98 0.99 4 2 C4 3.65 4 5.3 4 7 C2.02 7.99 2.02 7.99 0 9 C0 6.03 0 3.06 0 0 Z " fill="#26B7F5" transform="translate(44,15)"/>
<path d="M0 0 C0.99 0 1.98 0 3 0 C3.33 2.64 3.66 5.28 4 8 C2.68 8.33 1.36 8.66 0 9 C0 6.03 0 3.06 0 0 Z " fill="#28B5F6" transform="translate(44,26)"/>
<path d="M0 0 C0.90492188 0.02320312 1.80984375 0.04640625 2.7421875 0.0703125 C4.10730469 0.09738281 4.10730469 0.09738281 5.5 0.125 C6.19867188 0.14820312 6.89734375 0.17140625 7.6171875 0.1953125 C7.6171875 0.5253125 7.6171875 0.8553125 7.6171875 1.1953125 C6.3796875 1.2571875 5.1421875 1.3190625 3.8671875 1.3828125 C0.31168626 1.79888179 -0.22920375 2.03786354 -2.8828125 4.7578125 C-3.3778125 5.5621875 -3.8728125 6.3665625 -4.3828125 7.1953125 C-4.5078125 4.8203125 -4.5078125 4.8203125 -4.3828125 2.1953125 C-2.3828125 0.1953125 -2.3828125 0.1953125 0 0 Z " fill="#7ACFC0" transform="translate(4.3828125,25.8046875)"/>
<path d="M0 0 C0.99 0 1.98 0 3 0 C2.67 2.97 2.34 5.94 2 9 C1.34 9 0.68 9 0 9 C0 6.03 0 3.06 0 0 Z " fill="#86CEB9" transform="translate(10,15)"/>
<path d="M0 0 C0.99 0 1.98 0 3 0 C3 2.97 3 5.94 3 9 C2.34 9 1.68 9 1 9 C0.67 6.03 0.34 3.06 0 0 Z " fill="#73C9C6" transform="translate(17,15)"/>
</svg>
